<svg width="50" height="50" viewBox="0 0 50 50" fill="none" xmlns="http://www.w3.org/2000/svg">
<rect width="50" height="50" rx="25" fill="#272934"/>
<path d="M35.6111 11H13.3889C13.0205 11 12.6673 11.1389 12.4068 11.3861C12.1463 11.6333 12 11.9686 12 12.3182V38.6818C12 39.0314 12.1463 39.3667 12.4068 39.6139C12.6673 39.8611 13.0205 40 13.3889 40H35.6111C35.9795 40 36.3327 39.8611 36.5932 39.6139C36.8537 39.3667 37 39.0314 37 38.6818V12.3182C37 11.9686 36.8537 11.6333 36.5932 11.3861C36.3327 11.1389 35.9795 11 35.6111 11ZM34.2222 37.3636H14.7778V13.6364H34.2222V37.3636ZM20.3333 20.8864C20.3333 20.1042 20.5777 19.3397 21.0355 18.6893C21.4934 18.039 22.1441 17.5322 22.9055 17.2328C23.6668 16.9335 24.5046 16.8552 25.3129 17.0078C26.1211 17.1604 26.8636 17.537 27.4463 18.0901C28.029 18.6431 28.4258 19.3478 28.5866 20.1149C28.7474 20.882 28.6649 21.6771 28.3495 22.3997C28.0341 23.1223 27.5001 23.7399 26.8149 24.1744C26.1297 24.609 25.3241 24.8409 24.5 24.8409C23.3949 24.8409 22.3351 24.4243 21.5537 23.6826C20.7723 22.941 20.3333 21.9352 20.3333 20.8864ZM17.5556 32.75C17.5556 31.002 18.2872 29.3256 19.5895 28.0895C20.8919 26.8535 22.6582 26.1591 24.5 26.1591C26.3418 26.1591 28.1081 26.8535 29.4105 28.0895C30.7128 29.3256 31.4444 31.002 31.4444 32.75C31.4444 33.0996 31.2981 33.4349 31.0376 33.6821C30.7772 33.9293 30.4239 34.0682 30.0556 34.0682C29.6872 34.0682 29.3339 33.9293 29.0735 33.6821C28.813 33.4349 28.6667 33.0996 28.6667 32.75C28.6667 31.7012 28.2277 30.6953 27.4463 29.9537C26.6649 29.2121 25.6051 28.7955 24.5 28.7955C23.3949 28.7955 22.3351 29.2121 21.5537 29.9537C20.7723 30.6953 20.3333 31.7012 20.3333 32.75C20.3333 33.0996 20.187 33.4349 19.9265 33.6821C19.6661 33.9293 19.3128 34.0682 18.9444 34.0682C18.5761 34.0682 18.2228 33.9293 17.9624 33.6821C17.7019 33.4349 17.5556 33.0996 17.5556 32.75Z" fill="#F279AA"/>
</svg>
