<svg width="50" height="50" viewBox="0 0 50 50" fill="none" xmlns="http://www.w3.org/2000/svg">
<rect width="50" height="50" rx="25" fill="#272934"/>
<path d="M26.1531 17.1433C26.1531 17.4509 26.1531 18.4536 26.1531 19.8781H31.238L30.6867 24.2441H26.1531C26.1531 30.9773 26.1531 40 26.1531 40H20.1356C20.1356 40 20.1356 31.0967 20.1356 24.2441H17V19.8781H20.1356C20.1356 18.1467 20.1356 16.9155 20.1356 16.5727C20.1356 14.9394 20.0078 14.1645 20.7283 12.8989C21.4492 11.6333 23.4826 9.96044 26.9995 10.0007C30.5172 10.0425 32 10.3684 32 10.3684L31.238 15.0215C31.238 15.0215 28.9918 14.4502 27.8892 14.6538C26.7881 14.8574 26.1531 15.5107 26.1531 17.1433Z" fill="#F279AA"/>
</svg>
