<svg width="50" height="50" viewBox="0 0 50 50" fill="none" xmlns="http://www.w3.org/2000/svg">
<rect width="50" height="50" rx="25" fill="#272934"/>
<path d="M20.1539 35.6923C20.1539 36.3295 20.6705 36.8461 21.3077 36.8461C21.9449 36.8461 22.4616 36.3295 22.4616 35.6923H20.1539ZM21.3077 32.26L20.1547 32.2158C20.1542 32.2306 20.1539 32.2452 20.1539 32.26H21.3077ZM25 28.8293L24.9594 29.9823C24.9865 29.9832 25.0135 29.9832 25.0406 29.9823L25 28.8293ZM28.6923 32.26H29.8461C29.8461 32.2452 29.8458 32.2306 29.8453 32.2158L28.6923 32.26ZM27.5384 35.6923C27.5384 36.3295 28.0551 36.8461 28.6923 36.8461C29.3295 36.8461 29.8461 36.3295 29.8461 35.6923H27.5384ZM21.3077 34.5384C20.6705 34.5384 20.1539 35.0551 20.1539 35.6923C20.1539 36.3295 20.6705 36.8461 21.3077 36.8461V34.5384ZM28.6923 36.8461C29.3295 36.8461 29.8461 36.3295 29.8461 35.6923C29.8461 35.0551 29.3295 34.5384 28.6923 34.5384V36.8461ZM21.3077 36.8461C21.9449 36.8461 22.4616 36.3295 22.4616 35.6923C22.4616 35.0551 21.9449 34.5384 21.3077 34.5384V36.8461ZM20.3847 35.6923V34.5384C20.3711 34.5384 20.3576 34.5386 20.344 34.5391L20.3847 35.6923ZM14.8462 30.5446H13.6924C13.6924 30.5591 13.6927 30.5737 13.6932 30.5883L14.8462 30.5446ZM16.0001 20.2277C16.0001 19.5905 15.4835 19.0739 14.8462 19.0739C14.209 19.0739 13.6924 19.5905 13.6924 20.2277H16.0001ZM10.506 21.7792C9.97869 22.137 9.84138 22.8545 10.1993 23.3819C10.5571 23.9091 11.2747 24.0464 11.802 23.6885L10.506 21.7792ZM15.4942 21.1824C16.0215 20.8246 16.1588 20.107 15.8009 19.5797C15.443 19.0525 14.7255 18.9152 14.1982 19.2731L15.4942 21.1824ZM14.1982 19.2731C13.671 19.6309 13.5337 20.3484 13.8915 20.8757C14.2494 21.403 14.967 21.5403 15.4942 21.1824L14.1982 19.2731ZM22.8708 14.7816L22.2448 13.8124C22.2374 13.8171 22.23 13.822 22.2228 13.8269L22.8708 14.7816ZM27.1292 14.7816L27.7772 13.8269C27.77 13.822 27.7626 13.8171 27.7552 13.8124L27.1292 14.7816ZM34.5058 21.1825C35.0332 21.5403 35.7507 21.403 36.1085 20.8757C36.4664 20.3484 36.329 19.6309 35.8018 19.273L34.5058 21.1825ZM28.6923 34.5384C28.0551 34.5384 27.5384 35.0551 27.5384 35.6923C27.5384 36.3295 28.0551 36.8461 28.6923 36.8461V34.5384ZM29.6154 35.6923L29.656 34.5391C29.6424 34.5386 29.6289 34.5384 29.6154 34.5384V35.6923ZM35.1538 30.5446L36.3068 30.5883C36.3073 30.5737 36.3076 30.5591 36.3076 30.5446H35.1538ZM36.3076 20.2277C36.3076 19.5905 35.791 19.0739 35.1538 19.0739C34.5165 19.0739 33.9999 19.5905 33.9999 20.2277H36.3076ZM38.1984 23.6871C38.7257 24.045 39.4433 23.9075 39.801 23.3801C40.1587 22.8527 40.0211 22.1352 39.4937 21.7775L38.1984 23.6871ZM35.8018 19.273C35.2744 18.9153 34.5567 19.0527 34.1989 19.58C33.8412 20.1074 33.9784 20.8247 34.5058 21.1825L35.8018 19.273ZM22.4616 35.6923V32.26H20.1539V35.6923H22.4616ZM22.4608 32.304C22.5116 30.9739 23.6291 29.9354 24.9594 29.9823L25.0406 27.676C22.4393 27.5845 20.2541 29.6148 20.1547 32.2158L22.4608 32.304ZM25.0406 29.9823C26.3709 29.9354 27.4884 30.9739 27.5392 32.304L29.8453 32.2158C29.746 29.6148 27.5608 27.5845 24.9594 27.676L25.0406 29.9823ZM27.5384 32.26V35.6923H29.8461V32.26H27.5384ZM21.3077 36.8461H28.6923V34.5384H21.3077V36.8461ZM21.3077 34.5384H20.3847V36.8461H21.3077V34.5384ZM20.344 34.5391C18.0303 34.6206 16.087 32.8143 15.9992 30.5009L13.6932 30.5883C13.8291 34.1729 16.8402 36.9717 20.4253 36.8453L20.344 34.5391ZM16.0001 30.5446V20.2277H13.6924V30.5446H16.0001ZM11.802 23.6885L15.4942 21.1824L14.1982 19.2731L10.506 21.7792L11.802 23.6885ZM15.4942 21.1824L23.5188 15.7364L22.2228 13.8269L14.1982 19.2731L15.4942 21.1824ZM23.4968 15.7509C24.4119 15.1599 25.5882 15.1599 26.5032 15.7509L27.7552 13.8124C26.0781 12.7292 23.9219 12.7292 22.2448 13.8124L23.4968 15.7509ZM26.4812 15.7364L34.5058 21.1825L35.8018 19.273L27.7772 13.8269L26.4812 15.7364ZM28.6923 36.8461H29.6154V34.5384H28.6923V36.8461ZM29.5747 36.8453C33.1598 36.9717 36.1708 34.1729 36.3068 30.5883L34.0007 30.5009C33.913 32.8143 31.9696 34.6206 29.656 34.5391L29.5747 36.8453ZM36.3076 30.5446V20.2277H33.9999V30.5446H36.3076ZM39.4937 21.7775L35.8018 19.273L34.5058 21.1825L38.1984 23.6871L39.4937 21.7775Z" fill="#F279AA"/>
</svg>
