<svg width="50" height="50" viewBox="0 0 50 50" fill="none" xmlns="http://www.w3.org/2000/svg">
<rect width="50" height="50" rx="25" fill="#272934"/>
<path fill-rule="evenodd" clip-rule="evenodd" d="M24.75 32.25C28.8921 32.25 32.25 28.8921 32.25 24.75C32.25 20.6079 28.8921 17.25 24.75 17.25C20.6079 17.25 17.25 20.6079 17.25 24.75C17.25 28.8921 20.6079 32.25 24.75 32.25ZM24.75 29.75C27.5114 29.75 29.75 27.5114 29.75 24.75C29.75 21.9886 27.5114 19.75 24.75 19.75C21.9886 19.75 19.75 21.9886 19.75 24.75C19.75 27.5114 21.9886 29.75 24.75 29.75Z" fill="#F279AA"/>
<path d="M32.25 16C31.5596 16 31 16.5596 31 17.25C31 17.9403 31.5596 18.5 32.25 18.5C32.9404 18.5 33.5 17.9403 33.5 17.25C33.5 16.5596 32.9404 16 32.25 16Z" fill="#F279AA"/>
<path fill-rule="evenodd" clip-rule="evenodd" d="M11.8174 15.0951C11 16.6994 11 18.7996 11 23V26.5C11 30.7004 11 32.8006 11.8174 34.4049C12.5365 35.8161 13.6838 36.9635 15.0951 37.6825C16.6994 38.5 18.7996 38.5 23 38.5H26.5C30.7004 38.5 32.8006 38.5 34.4049 37.6825C35.8161 36.9635 36.9635 35.8161 37.6825 34.4049C38.5 32.8006 38.5 30.7004 38.5 26.5V23C38.5 18.7996 38.5 16.6994 37.6825 15.0951C36.9635 13.6838 35.8161 12.5365 34.4049 11.8174C32.8006 11 30.7004 11 26.5 11H23C18.7996 11 16.6994 11 15.0951 11.8174C13.6838 12.5365 12.5365 13.6838 11.8174 15.0951ZM26.5 13.5H23C20.8585 13.5 19.4028 13.5019 18.2776 13.5939C17.1815 13.6834 16.621 13.8457 16.23 14.045C15.2892 14.5243 14.5243 15.2892 14.045 16.23C13.8457 16.621 13.6834 17.1815 13.5939 18.2776C13.5019 19.4028 13.5 20.8585 13.5 23V26.5C13.5 28.6415 13.5019 30.0971 13.5939 31.2224C13.6834 32.3185 13.8457 32.879 14.045 33.27C14.5243 34.2107 15.2892 34.9756 16.23 35.455C16.621 35.6542 17.1815 35.8166 18.2776 35.9061C19.4028 35.998 20.8585 36 23 36H26.5C28.6415 36 30.0971 35.998 31.2224 35.9061C32.3185 35.8166 32.879 35.6542 33.27 35.455C34.2107 34.9756 34.9756 34.2107 35.455 33.27C35.6542 32.879 35.8166 32.3185 35.9061 31.2224C35.998 30.0971 36 28.6415 36 26.5V23C36 20.8585 35.998 19.4028 35.9061 18.2776C35.8166 17.1815 35.6542 16.621 35.455 16.23C34.9756 15.2892 34.2107 14.5243 33.27 14.045C32.879 13.8457 32.3185 13.6834 31.2224 13.5939C30.0971 13.5019 28.6415 13.5 26.5 13.5Z" fill="#F279AA"/>
</svg>
