<svg width="50" height="50" viewBox="0 0 50 50" fill="none" xmlns="http://www.w3.org/2000/svg">
<rect width="50" height="50" rx="25" fill="#272934"/>
<path d="M18.125 20C19.1605 20 20 19.1605 20 18.125C20 17.0895 19.1605 16.25 18.125 16.25C17.0895 16.25 16.25 17.0895 16.25 18.125C16.25 19.1605 17.0895 20 18.125 20Z" fill="#F279AA"/>
<path d="M16.25 22.5C16.25 21.8096 16.8096 21.25 17.5 21.25H18.75C19.4404 21.25 20 21.8096 20 22.5V32.5C20 33.1904 19.4404 33.75 18.75 33.75H17.5C16.8096 33.75 16.25 33.1904 16.25 32.5V22.5Z" fill="#F279AA"/>
<path d="M23.75 33.75H25C25.6904 33.75 26.25 33.1904 26.25 32.5V26.875C26.25 25 30 23.75 30 26.25V32.5005C30 33.1909 30.5596 33.75 31.25 33.75H32.5C33.1904 33.75 33.75 33.1904 33.75 32.5V25C33.75 22.5 31.875 21.25 29.375 21.25C26.875 21.25 26.25 23.125 26.25 23.125V22.5C26.25 21.8096 25.6904 21.25 25 21.25H23.75C23.0596 21.25 22.5 21.8096 22.5 22.5V32.5C22.5 33.1904 23.0596 33.75 23.75 33.75Z" fill="#F279AA"/>
<path fill-rule="evenodd" clip-rule="evenodd" d="M35 11.25C37.0711 11.25 38.75 12.9289 38.75 15V35C38.75 37.0711 37.0711 38.75 35 38.75H15C12.9289 38.75 11.25 37.0711 11.25 35V15C11.25 12.9289 12.9289 11.25 15 11.25H35ZM35 13.75C35.6904 13.75 36.25 14.3096 36.25 15V35C36.25 35.6904 35.6904 36.25 35 36.25H15C14.3096 36.25 13.75 35.6904 13.75 35V15C13.75 14.3096 14.3096 13.75 15 13.75H35Z" fill="#F279AA"/>
</svg>
