<svg width="50" height="50" viewBox="0 0 50 50" fill="none" xmlns="http://www.w3.org/2000/svg">
<rect width="50" height="50" rx="25" fill="#272934"/>
<path d="M22.5949 18.3661H38.0662C39.1342 18.3661 40.0001 17.5002 40.0001 16.4321C40.0001 15.3641 39.1342 14.4982 38.0662 14.4982H22.5949C21.5269 14.4982 20.661 15.3641 20.661 16.4321C20.661 17.5002 21.5268 18.3661 22.5949 18.3661Z" fill="#F279AA"/>
<path d="M38.0662 23.5231H22.5949C21.5269 23.5231 20.661 24.389 20.661 25.457C20.661 26.5251 21.5269 27.391 22.5949 27.391H38.0662C39.1342 27.391 40.0001 26.5251 40.0001 25.457C40.0001 24.389 39.1342 23.5231 38.0662 23.5231Z" fill="#F279AA"/>
<path d="M38.0662 32.548H22.5949C21.5269 32.548 20.661 33.4139 20.661 34.4819C20.661 35.55 21.5269 36.4159 22.5949 36.4159H38.0662C39.1342 36.4159 40.0001 35.55 40.0001 34.4819C40.0001 33.4139 39.1342 32.548 38.0662 32.548Z" fill="#F279AA"/>
<path d="M16.2899 23.9182L15.002 23.731L14.4261 22.5639C14.2631 22.2339 13.9271 22.0249 13.5589 22.0249C13.191 22.0249 12.8547 22.2339 12.6918 22.5639L12.1157 23.731L10.828 23.9182C10.4638 23.9711 10.1611 24.2262 10.0473 24.5762C9.93362 24.9263 10.0285 25.3105 10.2919 25.5674L11.2238 26.4757L11.0037 27.7584C10.9414 28.1212 11.0906 28.4879 11.3883 28.7042C11.5568 28.8267 11.7561 28.889 11.9568 28.889C12.1106 28.889 12.2651 28.8523 12.4066 28.778L13.5587 28.1723L14.7108 28.778C14.8523 28.8524 15.0068 28.889 15.1606 28.889C15.1615 28.889 15.1625 28.889 15.1633 28.889C15.6973 28.8889 16.1301 28.4561 16.1301 27.922C16.1301 27.8409 16.1202 27.762 16.1014 27.6867L15.8935 26.4757L16.8254 25.5674C17.0891 25.3105 17.1839 24.9263 17.0701 24.5762C16.9568 24.2262 16.6541 23.9711 16.2899 23.9182Z" fill="#F279AA"/>
<path d="M16.2899 14.8933L15.002 14.7061L14.4261 13.539C14.2631 13.209 13.9271 13 13.5589 13C13.191 13 12.8547 13.209 12.6918 13.539L12.1157 14.7061L10.828 14.8933C10.4638 14.9462 10.1611 15.2013 10.0473 15.5513C9.93362 15.9014 10.0285 16.2856 10.2919 16.5425L11.2238 17.4508L11.0037 18.7335C10.9414 19.0963 11.0906 19.463 11.3883 19.6793C11.5568 19.8018 11.7561 19.8641 11.9568 19.8641C12.1106 19.8641 12.2651 19.8273 12.4066 19.7531L13.5587 19.1474L14.7108 19.7531C14.8523 19.8275 15.0068 19.8641 15.1606 19.8641C15.1615 19.8641 15.1625 19.8641 15.1633 19.8641C15.6973 19.8641 16.1301 19.4312 16.1301 18.8971C16.1301 18.816 16.1202 18.7371 16.1014 18.6618L15.8935 17.4508L16.8254 16.5425C17.0891 16.2856 17.1839 15.9014 17.0701 15.5513C16.9568 15.2013 16.6541 14.9462 16.2899 14.8933Z" fill="#F279AA"/>
<path d="M16.2899 32.9431L15.002 32.7559L14.4261 31.5888C14.2631 31.2588 13.9271 31.0498 13.5589 31.0498C13.191 31.0498 12.8547 31.2588 12.6918 31.5888L12.1157 32.7559L10.828 32.9431C10.4638 32.996 10.1611 33.2511 10.0473 33.6011C9.93362 33.9512 10.0285 34.3354 10.2919 34.5923L11.2238 35.5006L11.0037 36.7833C10.9414 37.1461 11.0906 37.5128 11.3883 37.7291C11.5568 37.8516 11.7561 37.9139 11.9568 37.9139C12.1106 37.9139 12.2651 37.8772 12.4066 37.8029L13.5587 37.1972L14.7108 37.8029C14.8523 37.8773 15.0068 37.9139 15.1606 37.9139C15.1615 37.9139 15.1625 37.9139 15.1633 37.9139C15.6973 37.9138 16.1301 37.481 16.1301 36.9469C16.1301 36.8658 16.1202 36.7869 16.1014 36.7116L15.8935 35.5006L16.8254 34.5923C17.0891 34.3354 17.1839 33.9512 17.0701 33.6011C16.9568 33.2511 16.6541 32.996 16.2899 32.9431Z" fill="#F279AA"/>
</svg>
