<svg width="50" height="50" viewBox="0 0 50 50" fill="none" xmlns="http://www.w3.org/2000/svg">
<rect width="50" height="50" rx="25" fill="#272934"/>
<path fill-rule="evenodd" clip-rule="evenodd" d="M24.9999 10C16.7168 10 10 16.7153 10 24.9999C10 31.6274 14.2979 37.2498 20.2578 39.2334C21.0072 39.3725 21.2824 38.908 21.2824 38.5119C21.2824 38.1542 21.2685 36.9726 21.2621 35.7192C17.0891 36.6266 16.2085 33.9494 16.2085 33.9494C15.5262 32.2156 14.5431 31.7546 14.5431 31.7546C13.1819 30.8236 14.6457 30.843 14.6457 30.843C16.1517 30.9486 16.945 32.3888 16.945 32.3888C18.2829 34.6814 20.4541 34.0187 21.31 33.6357C21.4446 32.6662 21.8334 32.0042 22.2624 31.6297C18.9307 31.2509 15.4281 29.9645 15.4281 24.2169C15.4281 22.5793 16.0143 21.2412 16.9738 20.1905C16.8179 19.813 16.3044 18.2873 17.1189 16.2212C17.1189 16.2212 18.3783 15.8181 21.2447 17.7588C22.4414 17.4262 23.7249 17.259 24.9999 17.2533C26.2741 17.259 27.5583 17.4257 28.7573 17.7583C31.6203 15.8176 32.8781 16.2207 32.8781 16.2207C33.6946 18.2866 33.1812 19.8125 33.0254 20.19C33.9872 21.2407 34.5692 22.5788 34.5692 24.2164C34.5692 29.9776 31.0601 31.2459 27.72 31.6175C28.2583 32.083 28.7377 32.9961 28.7377 34.3953C28.7377 36.4023 28.7203 38.0176 28.7203 38.5116C28.7203 38.9108 28.9905 39.3785 29.7506 39.2312C35.707 37.2456 40 31.625 40 24.9999C39.9998 16.7158 33.2837 10 24.9999 10Z" fill="white"/>
</svg>
