<svg width="50" height="50" viewBox="0 0 50 50" fill="none" xmlns="http://www.w3.org/2000/svg">
<rect width="50" height="50" rx="25" fill="#272934"/>
<path fill-rule="evenodd" clip-rule="evenodd" d="M16 10C12.6863 10 10 12.6863 10 16V34C10 37.3137 12.6863 40 16 40H34C37.3137 40 40 37.3137 40 34V16C40 12.6863 37.3137 10 34 10H16ZM13 16C13 14.3431 14.3431 13 16 13H34C35.6569 13 37 14.3431 37 16V34C37 35.6569 35.6569 37 34 37H16C14.3431 37 13 35.6569 13 34V16ZM23.0607 21.5607C23.6464 20.9749 23.6464 20.0251 23.0607 19.4393C22.4749 18.8536 21.5251 18.8536 20.9393 19.4393L16.4393 23.9394C15.8536 24.5251 15.8536 25.4749 16.4393 26.0607L20.9393 30.5607C21.5251 31.1464 22.4749 31.1464 23.0607 30.5607C23.6464 29.9749 23.6464 29.0251 23.0607 28.4393L19.6213 25L23.0607 21.5607ZM29.0606 19.4393C28.4749 18.8536 27.5251 18.8536 26.9394 19.4393C26.3536 20.0251 26.3536 20.9749 26.9394 21.5607L30.3787 25L26.9394 28.4393C26.3536 29.0251 26.3536 29.9749 26.9394 30.5607C27.5251 31.1464 28.4749 31.1464 29.0606 30.5607L33.5607 26.0607C34.1464 25.4749 34.1464 24.5251 33.5607 23.9394L29.0606 19.4393Z" fill="#50ED57"/>
</svg>
