<svg width="344" height="215" viewBox="0 0 344 215" fill="none" xmlns="http://www.w3.org/2000/svg">
<path d="M330.176 108.412L265.587 43.825C261.87 40.1055 255.837 40.1055 252.114 43.825L238.703 57.2383L255.716 74.2516C259.671 72.9168 264.204 73.8122 267.355 76.9633C270.523 80.1344 271.411 84.7059 270.044 88.6739L286.441 105.072C290.407 103.704 294.986 104.588 298.152 107.761C302.582 112.188 302.582 119.363 298.152 123.791C297.1 124.845 295.85 125.68 294.474 126.25C293.099 126.82 291.624 127.114 290.135 127.114C288.646 127.114 287.171 126.82 285.796 126.25C284.42 125.68 283.17 124.845 282.118 123.791C280.536 122.209 279.458 120.194 279.019 118C278.58 115.806 278.8 113.531 279.651 111.462L264.36 96.1715L264.358 136.415C265.467 136.961 266.48 137.685 267.357 138.557C271.784 142.983 271.784 150.156 267.357 154.592C262.928 159.018 255.75 159.018 251.327 154.592C246.899 150.157 246.899 142.984 251.327 138.557C252.387 137.495 253.649 136.654 255.038 136.084V95.4684C253.648 94.9003 252.386 94.0591 251.327 92.9946C247.973 89.643 247.165 84.7211 248.886 80.6008L232.113 63.8278L187.825 108.113C186.038 109.9 185.035 112.324 185.035 114.851C185.035 117.378 186.038 119.802 187.825 121.59L252.415 186.176C256.135 189.896 262.165 189.896 265.891 186.176L330.177 121.89C331.964 120.102 332.967 117.678 332.967 115.15C332.967 112.623 331.963 110.199 330.176 108.412Z" fill="#F34F29"/>
<path fill-rule="evenodd" clip-rule="evenodd" d="M77.5 46.1794C37.1189 46.1794 4.3739 78.9171 4.3739 119.305C4.3739 151.616 25.3268 179.025 54.382 188.696C58.0354 189.374 59.3771 187.109 59.3771 185.178C59.3771 183.434 59.3093 177.674 59.2778 171.563C38.9341 175.987 34.6413 162.936 34.6413 162.936C31.3149 154.483 26.522 152.236 26.522 152.236C19.886 147.697 27.0221 147.792 27.0221 147.792C34.364 148.306 38.2317 155.327 38.2317 155.327C44.7538 166.504 55.3387 163.273 59.5115 161.406C60.1679 156.68 62.063 153.453 64.1543 151.627C47.912 149.78 30.8365 143.508 30.8365 115.489C30.8365 107.505 33.6943 100.982 38.3722 95.8593C37.6117 94.0187 35.1087 86.5811 39.0794 76.5086C39.0794 76.5086 45.2188 74.5432 59.1931 84.0043C65.0274 82.3828 71.2843 81.5679 77.5 81.54C83.7121 81.5679 89.9727 82.3804 95.8179 84.0018C109.775 74.5408 115.907 76.5061 115.907 76.5061C119.888 86.5775 117.385 94.0163 116.625 95.8569C121.314 100.979 124.151 107.502 124.151 115.486C124.151 143.573 107.044 149.756 90.761 151.567C93.3851 153.837 95.7222 158.288 95.7222 165.109C95.7222 174.894 95.6375 182.768 95.6375 185.177C95.6375 187.123 96.955 189.403 100.66 188.685C129.699 179.005 150.627 151.604 150.627 119.305C150.626 78.9195 117.885 46.1794 77.5 46.1794Z" fill="#B7B4B4"/>
<path d="M32.0705 151.171C31.9094 151.535 31.3379 151.644 30.8172 151.395C30.2843 151.158 29.9877 150.663 30.1596 150.298C30.317 149.923 30.8898 149.82 31.419 150.071C31.9518 150.309 32.2545 150.809 32.0693 151.173L32.0705 151.171ZM35.0324 154.476C34.6849 154.799 34.0031 154.649 33.5406 154.137C33.061 153.628 32.9714 152.947 33.3262 152.618C33.6871 152.296 34.3482 152.449 34.8278 152.957C35.3049 153.473 35.3993 154.149 35.0336 154.477L35.0324 154.476ZM37.9169 158.686C37.4688 158.999 36.735 158.707 36.2821 158.057C35.8341 157.405 35.8341 156.624 36.2942 156.313C36.7459 156.001 37.4688 156.283 37.929 156.927C38.3746 157.587 38.3746 158.369 37.9169 158.686ZM41.8658 162.756C41.4661 163.198 40.6112 163.08 39.9864 162.478C39.3482 161.888 39.1702 161.049 39.571 160.608C39.9779 160.165 40.8365 160.288 41.4649 160.887C42.1031 161.475 42.2956 162.316 41.8682 162.755L41.8658 162.756ZM47.315 165.119C47.137 165.692 46.3159 165.952 45.4865 165.707C44.6594 165.457 44.1181 164.787 44.2876 164.208C44.4572 163.631 45.2842 163.361 46.1186 163.621C46.9456 163.87 47.4869 164.536 47.315 165.119ZM53.3006 165.556C53.3212 166.159 52.6189 166.658 51.7506 166.67C50.8751 166.691 50.1667 166.201 50.1583 165.608C50.1583 164.999 50.8461 164.506 51.7204 164.489C52.5886 164.473 53.3018 164.958 53.3018 165.555L53.3006 165.556ZM58.8685 164.609C58.9727 165.196 58.3684 165.801 57.505 165.962C56.6574 166.119 55.8703 165.753 55.7613 165.171C55.6571 164.568 56.2723 163.964 57.1199 163.807C57.9845 163.659 58.7595 164.012 58.8685 164.609Z" fill="#646060"/>
</svg>
