<svg width="263" height="195" viewBox="0 0 263 195" fill="none" xmlns="http://www.w3.org/2000/svg">
<g clip-path="url(#clip0_95_23)">
<path d="M251.068 92.449L201.55 42.9326C198.7 40.0809 194.075 40.0809 191.221 42.9326L180.939 53.2161L193.983 66.2596C197.015 65.2363 200.49 65.9227 202.906 68.3386C205.334 70.7697 206.015 74.2745 204.967 77.3167L217.538 89.8885C220.579 88.84 224.089 89.5174 226.517 91.9504C229.913 95.3438 229.913 100.845 226.517 104.24C225.71 105.048 224.752 105.688 223.697 106.125C222.642 106.562 221.512 106.787 220.37 106.787C219.229 106.787 218.098 106.562 217.043 106.125C215.989 105.688 215.031 105.048 214.223 104.24C213.011 103.027 212.184 101.482 211.848 99.8C211.511 98.118 211.68 96.3741 212.332 94.7877L200.609 83.0649L200.608 113.918C201.458 114.337 202.235 114.892 202.907 115.56C206.301 118.954 206.301 124.453 202.907 127.854C199.512 131.247 194.009 131.247 190.617 127.854C187.223 124.454 187.223 118.955 190.617 115.56C191.43 114.746 192.398 114.102 193.462 113.665V82.5258C192.397 82.0902 191.429 81.4453 190.617 80.6292C188.046 78.0597 187.427 74.2862 188.746 71.1273L175.886 58.268L141.933 92.2199C140.563 93.5902 139.793 95.4484 139.793 97.386C139.793 99.3235 140.563 101.182 141.933 102.552L191.452 152.068C194.303 154.92 198.927 154.92 201.783 152.068L251.069 102.782C252.439 101.411 253.208 99.5529 253.208 97.6153C253.208 95.6777 252.438 93.8194 251.068 92.449Z" fill="#F34F29"/>
</g>
<path fill-rule="evenodd" clip-rule="evenodd" d="M57.5 44.5847C27.5398 44.5847 3.24512 68.874 3.24512 98.8395C3.24512 122.812 18.7908 143.148 40.3479 150.323C43.0585 150.826 44.054 149.146 44.054 147.713C44.054 146.419 44.0037 142.145 43.9803 137.612C28.8865 140.894 25.7016 131.21 25.7016 131.21C23.2336 124.939 19.6775 123.272 19.6775 123.272C14.7541 119.904 20.0486 119.974 20.0486 119.974C25.4958 120.356 28.3654 125.565 28.3654 125.565C33.2044 133.858 41.0577 131.461 44.1537 130.075C44.6406 126.569 46.0467 124.175 47.5983 122.82C35.5476 121.45 22.8787 116.797 22.8787 96.0077C22.8787 90.0843 24.999 85.2444 28.4697 81.444C27.9054 80.0784 26.0484 74.5602 28.9943 67.087C28.9943 67.087 33.5494 65.6288 43.9174 72.6483C48.2461 71.4453 52.8883 70.8406 57.5 70.82C62.109 70.8406 66.7539 71.4435 71.0907 72.6465C81.4461 65.627 85.9957 67.0852 85.9957 67.0852C88.9489 74.5575 87.0918 80.0766 86.5285 81.4422C90.0073 85.2426 92.1123 90.0825 92.1123 96.0059C92.1123 116.844 79.4201 121.432 67.3388 122.776C69.2857 124.459 71.0197 127.762 71.0197 132.823C71.0197 140.082 70.9568 145.925 70.9568 147.712C70.9568 149.156 71.9343 150.847 74.6835 150.315C96.2281 143.132 111.756 122.803 111.756 98.8395C111.755 68.8758 87.4629 44.5847 57.5 44.5847Z" fill="#B7B4B4"/>
<path d="M23.7942 122.482C23.6747 122.751 23.2506 122.832 22.8643 122.648C22.469 122.472 22.2489 122.105 22.3765 121.834C22.4933 121.556 22.9182 121.479 23.3108 121.665C23.7062 121.842 23.9308 122.213 23.7933 122.483L23.7942 122.482ZM25.9918 124.934C25.7339 125.174 25.2281 125.062 24.8849 124.682C24.5291 124.305 24.4626 123.799 24.7259 123.556C24.9936 123.317 25.4842 123.43 25.8399 123.807C26.1939 124.19 26.264 124.691 25.9927 124.935L25.9918 124.934ZM28.1319 128.058C27.7994 128.289 27.255 128.073 26.919 127.59C26.5865 127.107 26.5865 126.528 26.928 126.297C27.2631 126.065 27.7994 126.274 28.1408 126.752C28.4715 127.242 28.4715 127.822 28.1319 128.058ZM31.0617 131.077C30.7652 131.405 30.1309 131.317 29.6673 130.871C29.1938 130.433 29.0617 129.81 29.3591 129.483C29.661 129.155 30.298 129.246 30.7643 129.69C31.2378 130.127 31.3806 130.75 31.0635 131.076L31.0617 131.077ZM35.1046 132.83C34.9726 133.255 34.3634 133.448 33.748 133.267C33.1344 133.081 32.7328 132.584 32.8585 132.154C32.9843 131.726 33.598 131.526 34.217 131.719C34.8306 131.904 35.2322 132.398 35.1046 132.83ZM39.5456 133.154C39.5609 133.602 39.0398 133.972 38.3956 133.981C37.746 133.996 37.2205 133.633 37.2142 133.193C37.2142 132.741 37.7245 132.375 38.3732 132.363C39.0173 132.351 39.5465 132.711 39.5465 133.154L39.5456 133.154ZM43.6766 132.452C43.7539 132.888 43.3056 133.336 42.665 133.455C42.0361 133.572 41.4521 133.301 41.3712 132.869C41.294 132.421 41.7504 131.973 42.3793 131.857C43.0208 131.747 43.5958 132.009 43.6766 132.452Z" fill="#646060"/>
<defs>
<clipPath id="clip0_95_23">
<rect width="115" height="115" fill="white" transform="translate(139 40)"/>
</clipPath>
</defs>
</svg>
