<svg width="314" height="210" viewBox="0 0 314 210" fill="none" xmlns="http://www.w3.org/2000/svg">
<path d="M13.6919 35.7042L21.8258 126.653L58.3253 136.446L94.9263 126.838L103.069 35.7042H13.6919ZM86.1507 56.4096L85.6408 62.3104L85.4165 65.0363H42.6006L43.6235 77.1737H84.3986L84.126 79.4303L81.4959 108.67L81.3028 110.38L58.3806 116.584V116.579L58.3534 116.591L35.4443 110.607L33.8894 93.3569H45.1221L45.9177 101.914L58.3745 105.089L58.3806 104.852V104.864L70.8646 102.185L72.1681 88.2997H33.3895L30.6396 57.1106L30.3711 53.9103H86.4182L86.1507 56.4096ZM22.1275 10.0407H27.7821V15.6603H32.956V10.0407H38.6116V27.0553H32.956V21.3578H27.7831V27.0553H22.1275V10.0407ZM46.0475 15.6836H41.0688V10.0407H56.6838V15.6836H51.7031V27.0553H46.0475V15.6836ZM59.1621 10.0407H65.0581L68.686 16.0194L72.3099 10.0407H78.2089V27.0553H72.5754V18.6219L68.686 24.6713H68.5874L64.695 18.6219V27.0553H59.1611L59.1621 10.0407ZM81.0241 10.0407H86.6808V21.4317H94.6336V27.0563H81.0241V10.0407Z" fill="#E44D26"/>
<path d="M211.767 34.3302L219.902 125.555L256.401 135.687L293.001 125.542L301.145 34.3302H211.767ZM281.537 85.2267L279.168 107.296L279.178 109.186L256.456 115.532L256.438 115.548L233.535 109.273L231.986 91.7914H243.217L244.013 100.628L256.46 103.95L256.456 103.965V103.933L268.95 100.41L270.269 85.7429H244.152L243.929 83.3688L243.418 77.6761L243.151 74.6539H271.263L272.285 63.5649H229.469L229.244 60.9549L228.734 54.8761L228.466 51.4678H284.513L284.244 54.8287L281.537 85.2267ZM281.658 22.6101L274.452 14.1684H281.658V9.12793H265.529V13.5262L273.987 21.225H265.529V26.2655H281.658V22.6101ZM262.505 22.6101L255.643 14.1684H262.505V9.12793H247.383V13.5262L255.179 21.225H247.383V26.2655H262.505V22.6101ZM244.359 21.225H236.294V14.1684H244.359V9.12793H230.246V26.2655H244.359V21.225Z" fill="#1572B6"/>
<path d="M111.36 108.622V200.807H203.93V108.622H111.36ZM160.325 187.174C158.959 189.938 156.351 191.755 153.329 192.632C148.684 193.694 144.243 193.088 140.938 191.113C138.727 189.762 137 187.682 135.828 185.286L142.878 180.987C142.939 181.013 143.124 181.346 143.372 181.777C144.271 183.277 145.046 184.339 146.57 185.084C148.068 185.593 151.355 185.918 152.624 183.294C153.4 181.96 153.153 177.669 153.153 172.922C153.152 165.462 153.187 158.033 153.187 150.659H161.858C161.858 158.771 161.903 166.454 161.858 174.37C161.877 179.223 162.3 183.549 160.325 187.174ZM196.297 184.734C193.283 195.001 176.478 195.334 169.763 188.551C168.344 186.954 167.455 186.12 166.608 184.277C170.177 182.233 170.177 182.233 173.649 180.232C175.536 183.12 177.28 184.707 180.417 185.357C184.674 185.875 188.957 184.418 187.996 179.916C187.009 176.239 179.28 175.344 174.02 171.412C168.679 167.84 167.428 159.162 171.816 154.203C173.279 152.369 175.773 151 178.39 150.342L181.122 149.99C186.365 149.885 189.643 151.264 192.049 153.94C192.719 154.615 193.265 155.344 194.287 156.923C191.494 158.696 191.503 158.679 187.501 161.258C186.647 159.425 185.229 158.275 183.73 157.775C181.403 157.072 178.469 157.836 177.86 160.284C177.649 161.039 177.693 161.741 178.028 162.987C178.971 165.128 182.135 166.059 184.972 167.357C193.142 170.657 195.9 174.195 196.578 178.406C197.232 182.031 196.421 184.383 196.297 184.734Z" fill="#F0DB4F"/>
</svg>
