<svg width="344" height="230" viewBox="0 0 344 230" fill="none" xmlns="http://www.w3.org/2000/svg">
<path d="M15 39.1155L23.911 138.753L63.8977 149.482L103.996 138.956L112.917 39.1155H15ZM94.3816 61.7991L93.823 68.2636L93.5772 71.2499H46.6707L47.7913 84.547H92.4621L92.1635 87.0191L89.2821 119.053L89.0705 120.925L63.9583 127.722V127.717L63.9286 127.73L38.8307 121.175L37.1272 102.276H49.4331L50.3047 111.651L63.9517 115.129L63.9583 114.87V114.883L77.635 111.948L79.0631 96.7359H36.5795L33.5669 62.567L33.2727 59.061H94.6747L94.3816 61.7991ZM24.2416 11H30.4364V17.1565H36.1046V11H42.3006V29.6402H36.1046V23.3984H30.4375V29.6402H24.2416V11ZM50.4469 17.182H44.9925V11H62.0994V17.182H56.6428V29.6402H50.4469V17.182ZM64.8145 11H71.2738L75.2483 17.5499L79.2184 11H85.6811V29.6402H79.5093V20.401L75.2483 27.0285H75.1403L70.876 20.401V29.6402H64.8134L64.8145 11ZM88.7653 11H94.9623V23.4793H103.675V29.6413H88.7653V11Z" fill="#E44D26"/>
<path d="M232 37.6101L240.911 137.551L280.898 148.65L320.995 137.537L329.917 37.6101H232ZM308.436 93.3694L305.841 117.547L305.85 119.618L280.958 126.57L280.938 126.588L255.847 119.713L254.15 100.561H266.454L267.327 110.243L280.963 113.882L280.958 113.898V113.863L294.646 110.003L296.091 93.9348H267.479L267.234 91.334L266.675 85.0974L266.382 81.7864H297.18L298.3 69.6379H251.392L251.146 66.7786L250.587 60.119L250.294 56.385H311.696L311.401 60.0671L308.436 93.3694ZM308.568 24.7703L300.673 15.522H308.568V10H290.898V14.8185L300.164 23.2529H290.898V28.7749H308.568V24.7703ZM287.585 24.7703L280.067 15.522H287.585V10H271.019V14.8185L279.559 23.2529H271.019V28.7749H287.585V24.7703ZM267.705 23.2529H258.87V15.522H267.705V10H252.244V28.7749H267.705V23.2529Z" fill="#1572B6"/>
<path d="M122 119V219.993H223.414V119H122ZM175.643 205.056C174.146 208.085 171.289 210.075 167.978 211.036C162.89 212.199 158.024 211.536 154.404 209.372C151.981 207.892 150.089 205.614 148.805 202.989L156.529 198.279C156.596 198.307 156.799 198.672 157.07 199.144C158.055 200.787 158.904 201.951 160.574 202.767C162.214 203.325 165.816 203.681 167.206 200.807C168.056 199.344 167.785 194.644 167.785 189.443C167.785 181.271 167.823 173.132 167.823 165.053H177.322C177.322 173.94 177.371 182.357 177.322 191.03C177.343 196.346 177.806 201.085 175.643 205.056ZM215.052 202.384C211.749 213.632 193.339 213.997 185.982 206.566C184.428 204.816 183.453 203.903 182.526 201.884C186.436 199.644 186.436 199.644 190.24 197.452C192.306 200.615 194.217 202.355 197.655 203.066C202.318 203.634 207.01 202.038 205.958 197.105C204.876 193.077 196.408 192.097 190.646 187.789C184.795 183.876 183.424 174.368 188.232 168.936C189.834 166.926 192.567 165.427 195.434 164.706L198.426 164.321C204.171 164.205 207.762 165.716 210.398 168.647C211.131 169.387 211.73 170.186 212.85 171.915C209.789 173.858 209.799 173.839 205.416 176.665C204.479 174.657 202.926 173.396 201.284 172.849C198.734 172.079 195.52 172.916 194.853 175.598C194.622 176.424 194.67 177.194 195.037 178.559C196.07 180.905 199.536 181.924 202.645 183.347C211.595 186.962 214.617 190.837 215.36 195.451C216.075 199.423 215.187 201.999 215.052 202.384Z" fill="#F0DB4F"/>
</svg>
