<svg width="215" height="215" viewBox="0 0 215 215" fill="none" xmlns="http://www.w3.org/2000/svg">
<path d="M88.3197 113.911C88.3197 113.911 82.8036 117.121 92.2518 118.206C103.697 119.513 109.548 119.325 122.159 116.942C122.159 116.942 125.483 119.019 130.112 120.82C101.833 132.936 66.1091 120.118 88.3197 113.911ZM84.8612 98.0972C84.8612 98.0972 78.6732 102.681 88.1282 103.659C100.356 104.92 110.01 105.024 126.726 101.806C126.726 101.806 129.032 104.151 132.665 105.429C98.4801 115.43 60.4032 106.217 84.8612 98.0972Z" fill="#0074BD"/>
<path d="M113.992 71.2707C120.965 79.2962 112.165 86.5122 112.165 86.5122C112.165 86.5122 129.857 77.3797 121.732 65.9394C114.142 55.275 108.325 49.979 139.824 31.7107C139.824 31.7107 90.3774 44.0564 113.992 71.2707Z" fill="#EA2D2E"/>
<path d="M151.394 125.609C151.394 125.609 155.479 128.976 146.895 131.58C130.576 136.523 78.962 138.015 64.6259 131.776C59.4759 129.534 69.1392 126.423 72.1778 125.77C75.3473 125.083 77.158 125.209 77.158 125.209C71.4269 121.172 40.1124 133.135 61.253 136.567C118.907 145.911 166.346 132.358 151.394 125.609ZM90.9752 81.7115C90.9752 81.7115 64.7233 87.9482 81.6798 90.2158C88.842 91.1732 103.109 90.9532 116.409 89.8379C127.275 88.9258 138.18 86.9757 138.18 86.9757C138.18 86.9757 134.352 88.6184 131.578 90.5097C104.915 97.5224 53.4173 94.2554 68.2439 87.0865C80.7795 81.0212 90.9752 81.7115 90.9752 81.7115ZM138.07 108.032C165.172 93.9531 152.64 80.4215 143.894 82.244C141.756 82.6908 140.795 83.0771 140.795 83.0771C140.795 83.0771 141.593 81.8274 143.109 81.2916C160.414 75.2111 173.718 99.2324 137.53 108.746C137.53 108.746 137.944 108.37 138.07 108.032Z" fill="#0074BD"/>
<path d="M121.734 2.20532C121.734 2.20532 136.742 17.22 107.497 40.304C84.0449 58.8259 102.149 69.3844 107.487 81.4529C93.7971 69.1005 83.756 58.2262 90.4915 48.1078C100.383 33.256 127.787 26.0518 121.734 2.20532Z" fill="#EA2D2E"/>
<path d="M93.6409 146.198C119.649 147.861 159.601 145.273 160.546 132.966C160.546 132.966 158.729 137.63 139.048 141.332C116.846 145.511 89.4584 145.026 73.2192 142.345C73.2192 142.345 76.545 145.1 93.6409 146.198Z" fill="#0074BD"/>
<path d="M159.345 168.272H158.553V167.829H160.686V168.272H159.896V170.485H159.344L159.345 168.272ZM163.603 168.383H163.593L162.807 170.485H162.444L161.663 168.383H161.655V170.485H161.131V167.829H161.898L162.622 169.709L163.348 167.829H164.111V170.485H163.603V168.383ZM89.3778 193.226C86.9255 195.352 84.3321 196.548 82.0023 196.548C78.6866 196.548 76.8877 194.556 76.8877 191.366C76.8877 187.915 78.8126 185.387 86.5257 185.387H89.3762L89.3778 193.226ZM96.1487 200.865V177.22C96.1487 171.175 92.7003 167.187 84.3959 167.187C79.5483 167.187 75.2987 168.387 71.8436 169.912L72.8379 174.099C75.559 173.1 79.078 172.173 82.5314 172.173C87.3185 172.173 89.3762 174.099 89.3762 178.087V181.075H86.9843C75.3592 181.075 70.1135 185.585 70.1135 192.368C70.1135 198.211 73.5703 201.532 80.0791 201.532C84.2615 201.532 87.3874 199.805 90.305 197.277L90.8358 200.867L96.1487 200.865ZM118.744 200.865H110.3L100.136 167.794H107.512L113.821 188.116L115.223 194.222C118.408 185.39 120.665 176.424 121.794 167.795H128.968C127.048 178.682 123.588 190.636 118.744 200.865ZM151.142 193.226C148.681 195.352 146.086 196.548 143.765 196.548C140.445 196.548 138.648 194.556 138.648 191.366C138.648 187.915 140.578 185.387 148.283 185.387H151.14L151.142 193.226ZM157.916 200.865V177.22C157.916 171.175 154.457 167.187 146.16 167.187C141.307 167.187 137.059 168.387 133.604 169.912L134.6 174.099C137.321 173.1 140.845 172.173 144.299 172.173C149.079 172.173 151.142 174.099 151.142 178.087V181.075H148.75C137.121 181.075 131.877 185.585 131.877 192.368C131.877 198.211 135.331 201.532 141.838 201.532C146.022 201.532 149.143 199.805 152.069 197.277L152.603 200.867L157.916 200.865ZM62.6893 206.485C60.7627 209.306 57.6418 211.538 54.2287 212.796L50.8878 208.857C53.4862 207.523 55.7118 205.372 56.7482 203.366C57.6418 201.581 58.013 199.285 58.013 193.79V156.028H65.2088V193.271C65.2088 200.62 64.6243 203.591 62.6893 206.485Z" fill="#EA2D2E"/>
</svg>
