<svg width="185" height="185" viewBox="0 0 185 185" fill="none" xmlns="http://www.w3.org/2000/svg">
<path d="M75.996 98.0168C75.996 98.0168 71.2496 100.779 79.3795 101.712C89.2278 102.837 94.2619 102.675 105.113 100.624C105.113 100.624 107.974 102.412 111.957 103.961C87.6235 114.386 56.8846 103.357 75.996 98.0168ZM73.0201 84.4092C73.0201 84.4092 67.6955 88.3534 75.8312 89.1946C86.3531 90.28 94.6593 90.3696 109.043 87.6004C109.043 87.6004 111.028 89.6181 114.154 90.718C84.7387 99.3233 51.9748 91.3958 73.0201 84.4092Z" fill="#0074BD"/>
<path d="M98.0864 61.3261C104.086 68.2318 96.5139 74.4409 96.5139 74.4409C96.5139 74.4409 111.737 66.5827 104.746 56.7387C98.215 47.5624 93.2099 43.0053 120.314 27.2861C120.314 27.2861 77.7667 37.9092 98.0864 61.3261Z" fill="#EA2D2E"/>
<path d="M130.269 108.082C130.269 108.082 133.784 110.98 126.398 113.22C112.356 117.474 67.9441 118.757 55.6083 113.389C51.177 111.46 59.4919 108.783 62.1065 108.221C64.8338 107.63 66.3918 107.738 66.3918 107.738C61.4604 104.265 34.5154 114.558 52.7061 117.511C102.315 125.551 143.135 113.889 130.269 108.082ZM78.281 70.3101C78.281 70.3101 55.6921 75.6765 70.2826 77.6277C76.4454 78.4516 88.7219 78.2622 100.166 77.3025C109.516 76.5177 118.899 74.8397 118.899 74.8397C118.899 74.8397 115.605 76.2532 113.219 77.8807C90.2757 83.9148 45.9637 81.1037 58.7215 74.9351C69.5079 69.7161 78.281 70.3101 78.281 70.3101ZM118.805 92.9582C142.125 80.8435 131.341 69.2001 123.816 70.7683C121.976 71.1527 121.149 71.4851 121.149 71.4851C121.149 71.4851 121.836 70.4098 123.141 69.9488C138.03 64.7167 149.479 85.3862 118.339 93.5724C118.339 93.5724 118.696 93.2487 118.805 92.9582Z" fill="#0074BD"/>
<path d="M104.748 1.89771C104.748 1.89771 117.661 14.8174 92.4971 34.6803C72.3176 50.6177 87.8952 59.703 92.4884 70.0875C80.7091 59.4587 72.0691 50.1018 77.8648 41.3952C86.3762 28.6157 109.957 22.4168 104.748 1.89771Z" fill="#EA2D2E"/>
<path d="M80.5747 125.799C102.954 127.229 137.331 125.002 138.144 114.412C138.144 114.412 136.581 118.426 119.646 121.611C100.542 125.207 76.9759 124.79 63.0026 122.483C63.0026 122.483 65.8643 124.853 80.5747 125.799Z" fill="#0074BD"/>
<path d="M137.111 144.793H136.429V144.411H138.264V144.793H137.585V146.696H137.11L137.111 144.793ZM140.775 144.888H140.766L140.09 146.696H139.778L139.106 144.888H139.098V146.696H138.647V144.411H139.308L139.931 146.028L140.555 144.411H141.211V146.696H140.775V144.888ZM76.9065 166.264C74.7963 168.094 72.5648 169.123 70.5601 169.123C67.7071 169.123 66.1591 167.409 66.1591 164.664C66.1591 161.694 67.8155 159.519 74.4523 159.519H76.905L76.9065 166.264ZM82.7326 172.837V152.492C82.7326 147.29 79.7653 143.859 72.6197 143.859C68.4485 143.859 64.7919 144.891 61.8189 146.203L62.6745 149.806C65.0159 148.946 68.0438 148.149 71.0154 148.149C75.1345 148.149 76.905 149.806 76.905 153.238V155.809H74.8469C64.8439 155.809 60.3302 159.689 60.3302 165.526C60.3302 170.554 63.3046 173.411 68.9052 173.411C72.5041 173.411 75.1938 171.925 77.7043 169.75L78.161 172.839L82.7326 172.837ZM102.175 172.837H94.9093L86.1637 144.381H92.5101L97.9387 161.868L99.1455 167.121C101.886 159.522 103.828 151.807 104.8 144.382H110.973C109.321 153.749 106.343 164.036 102.175 172.837ZM130.052 166.264C127.935 168.094 125.702 169.123 123.704 169.123C120.848 169.123 119.302 167.409 119.302 164.664C119.302 161.694 120.963 159.519 127.592 159.519H130.051L130.052 166.264ZM135.881 172.837V152.492C135.881 147.29 132.905 143.859 125.765 143.859C121.59 143.859 117.935 144.891 114.962 146.203L115.819 149.806C118.16 148.946 121.192 148.149 124.164 148.149C128.277 148.149 130.052 149.806 130.052 153.238V155.809H127.994C117.988 155.809 113.476 159.689 113.476 165.526C113.476 170.554 116.447 173.411 122.047 173.411C125.647 173.411 128.332 171.925 130.85 169.75L131.31 172.839L135.881 172.837ZM53.9419 177.673C52.2841 180.1 49.5987 182.021 46.6618 183.104L43.7871 179.714C46.023 178.567 47.9381 176.715 48.8298 174.99C49.5987 173.453 49.9181 171.477 49.9181 166.75V134.256H56.1099V166.303C56.1099 172.626 55.6069 175.183 53.9419 177.673Z" fill="#EA2D2E"/>
</svg>
