<svg width="185" height="185" viewBox="0 0 185 185" fill="none" xmlns="http://www.w3.org/2000/svg">
<path fill-rule="evenodd" clip-rule="evenodd" d="M126.117 144.732C126.361 144.262 126.595 143.848 126.794 143.418C126.92 143.144 127.114 143.089 127.387 143.096C129.025 143.142 130.662 143.193 132.301 143.209C133.693 143.223 135.088 143.197 136.481 143.181C138.051 143.163 139.62 143.08 141.188 143.125C143.277 143.186 145.312 143.595 147.201 144.524C149.457 145.635 151.164 147.328 152.327 149.558C153.059 150.972 153.515 152.512 153.673 154.096C153.921 156.42 153.758 158.691 153.021 160.914C152.108 163.669 150.373 165.777 147.964 167.357C146.11 168.573 144.076 169.291 141.896 169.701C139.59 170.136 137.276 169.996 134.962 170.003C132.424 170.014 129.887 169.959 127.349 169.93C126.906 169.925 126.842 169.842 126.959 169.418L127.068 169.028C127.315 168.25 127.448 168.216 128.237 168.085C128.796 167.997 129.331 167.794 129.808 167.489C130.074 167.312 130.184 166.853 130.288 166.499C130.377 166.189 130.382 165.85 130.385 165.523C130.421 160.573 130.458 155.624 130.479 150.677C130.484 149.425 130.453 148.174 130.385 146.925C130.335 146.05 129.869 145.452 128.828 145.245C128.019 145.085 127.203 144.961 126.39 144.817L126.117 144.732ZM149.351 156.718C149.242 155.732 149.188 154.738 149.012 153.767C148.59 151.435 147.569 149.405 145.777 147.814C142.879 145.242 139.39 144.846 135.734 145.153C134.901 145.222 134.722 145.507 134.709 146.362C134.689 147.577 134.668 148.791 134.667 150.005C134.661 153.855 134.661 157.705 134.667 161.556C134.668 162.651 134.68 163.747 134.712 164.839C134.747 165.958 135.153 166.905 136.248 167.338C137.975 168.022 139.792 168.103 141.605 167.824C144.499 167.38 146.524 165.693 147.883 163.166C148.958 161.16 149.262 158.97 149.351 156.718ZM156.389 169.829C156.354 169.229 156.6 168.733 156.903 168.278C156.986 168.155 157.269 168.161 157.464 168.122L159.12 167.794C159.706 167.669 160.013 167.276 160.096 166.702C160.151 166.324 160.203 165.941 160.207 165.558C160.246 162.527 160.275 159.496 160.292 156.465C160.307 153.43 160.295 150.395 160.295 147.36L160.282 146.78C160.223 145.805 159.752 145.299 158.784 145.156L156.683 144.836C156.425 144.802 156.331 144.677 156.425 144.447C156.587 144.056 156.741 143.65 156.97 143.297C157.055 143.167 157.343 143.116 157.536 143.121C158.539 143.135 159.542 143.21 160.545 143.209L169.276 143.157C170.959 143.155 172.583 143.449 174.092 144.254C175.753 145.138 176.682 146.507 176.948 148.371C177.226 150.33 176.632 151.98 175.201 153.291C174.613 153.832 173.851 154.184 173.169 154.624L172.946 154.763C173.579 154.995 174.182 155.196 174.769 155.436C176.486 156.14 177.852 157.24 178.574 158.996C179.145 160.382 179.145 161.827 178.807 163.264C178.281 165.513 176.799 167.009 174.873 168.14C173.065 169.203 171.108 169.821 169.024 169.925C167.101 170.022 165.17 169.986 163.244 170.008L162.128 170.014C160.271 169.971 158.414 169.925 156.558 169.875L156.389 169.829ZM164.391 161.028H164.41C164.41 161.979 164.397 162.93 164.414 163.881C164.426 164.497 164.404 165.13 164.537 165.722C164.737 166.608 165.141 167.408 166.136 167.662C167.465 168.011 168.854 168.072 170.209 167.841C171.91 167.545 173.267 166.692 174.011 165.072C174.563 163.868 174.646 162.592 174.456 161.288C174.205 159.571 173.293 158.325 171.777 157.509C170.782 156.972 169.722 156.644 168.591 156.601C167.325 156.553 166.058 156.55 164.792 156.511C164.436 156.501 164.387 156.682 164.388 156.974C164.396 158.324 164.391 159.675 164.391 161.028ZM167.087 154.56C167.779 154.526 168.562 154.515 169.342 154.437C170.833 154.289 171.884 153.538 172.432 152.112C172.711 151.388 172.699 150.642 172.706 149.889C172.728 147.928 171.583 146.321 169.72 145.656C168.282 145.143 166.799 145.134 165.308 145.174C164.704 145.19 164.433 145.455 164.425 146.063L164.335 153.997C164.331 154.312 164.466 154.448 164.773 154.458L167.087 154.56Z" fill="#94795D"/>
<path fill-rule="evenodd" clip-rule="evenodd" d="M15.2379 168.304L15.1324 169.668C14.1496 169.668 13.2433 169.661 12.3371 169.671C10.6302 169.688 8.9233 169.716 7.21494 169.74L7.05017 169.751C6.80591 169.722 6.3622 169.722 6.35064 169.649C6.27838 169.243 6.3015 168.817 6.32029 168.396C6.32174 168.349 6.48795 168.288 6.58478 168.265L7.91303 167.969C8.74119 167.753 9.03314 167.396 9.07217 166.541C9.11697 165.577 9.16178 164.611 9.16611 163.647C9.17912 161.274 9.16467 158.904 9.17479 156.53C9.17623 155.975 8.984 155.562 8.46658 155.336C7.85174 155.064 7.23258 154.801 6.60935 154.547C6.31451 154.429 5.9315 154.364 5.96619 153.968C6.00087 153.565 6.37232 153.459 6.72209 153.38C8.17029 153.049 9.61994 152.726 11.0638 152.374C11.5292 152.259 11.9744 152.067 12.5308 151.874C12.5597 152.174 12.6132 152.46 12.6074 152.746L12.5221 154.107C12.5207 154.26 12.6002 154.465 12.7144 154.55C12.7837 154.604 13.0164 154.507 13.1321 154.417C14.3664 153.478 15.6729 152.667 17.163 152.194C19.4712 151.462 21.4527 152.141 22.8402 154.131C23.3287 154.832 23.3302 154.832 24.008 154.342C25.1715 153.497 26.3885 152.751 27.75 152.259C30.7389 151.18 33.6107 152.55 34.6499 155.561C35.0286 156.653 35.1731 157.782 35.1702 158.935L35.1427 166.593C35.1413 167.224 35.3509 167.584 35.9521 167.781C36.6271 168.002 37.3266 168.154 38.0869 168.353L37.9105 169.67C37.0462 169.67 36.2513 169.664 35.4564 169.671C33.5139 169.688 31.5714 169.699 29.6303 169.743C29.2921 169.752 29.204 169.668 29.1866 169.352C29.1302 168.339 29.1216 168.34 30.0755 168.112L30.3963 168.029C31.3286 167.775 31.6393 167.489 31.6465 166.543C31.6682 163.829 31.7246 161.108 31.5873 158.399C31.4442 155.589 29.2141 154.094 26.4911 154.813C25.6122 155.054 24.7846 155.453 24.0485 155.99C23.7956 156.17 23.7479 156.379 23.7681 156.695C23.8447 157.892 23.8924 159.09 23.9025 160.288C23.9199 162.385 23.8939 164.482 23.9025 166.581C23.9054 167.431 24.1959 167.756 25.0357 167.953L26.283 168.24L26.5142 168.292C26.5316 168.691 26.5475 169.09 26.5287 169.489C26.5171 169.739 26.3234 169.761 26.1066 169.756C24.894 169.726 23.68 169.686 22.4673 169.688C20.9917 169.691 19.5175 169.733 18.0432 169.759H17.6964C17.6964 169.336 17.6761 168.931 17.7108 168.528C17.718 168.431 17.8886 168.295 18.0057 168.265L19.4596 167.957C20.0768 167.805 20.3716 167.489 20.4063 166.861C20.5711 163.956 20.6896 161.05 20.4164 158.146C20.3499 157.573 20.1907 157.014 19.9453 156.491C19.2009 154.847 17.5258 154.16 15.5934 154.654C14.6757 154.888 13.8475 155.309 13.0641 155.839C12.8933 155.945 12.753 156.093 12.6571 156.269C12.5613 156.445 12.5133 156.643 12.5178 156.844C12.5178 159.742 12.5279 162.64 12.5366 165.536L12.5525 166.653C12.5698 167.432 12.9008 167.843 13.674 168.01C14.1712 168.123 14.6742 168.2 15.2379 168.304Z" fill="#50382B"/>
<path fill-rule="evenodd" clip-rule="evenodd" d="M102.619 152.17C102.843 153.26 102.838 154.24 102.038 154.983C101.243 155.721 100.237 155.473 99.2555 155.308C99.3466 155.825 99.4477 156.265 99.4969 156.71C99.8539 160.018 98.4302 162.474 95.3618 163.877C94.2027 164.406 92.9727 164.603 91.7167 164.704C91.0924 164.753 90.546 165.23 90.4868 165.743C90.4261 166.263 90.7527 166.798 91.406 166.954C92.1763 167.138 92.9799 167.19 93.7705 167.281C95.4673 167.475 97.1829 167.563 98.8595 167.866C101.395 168.323 102.81 170.536 102.363 173.082C101.965 175.349 100.653 176.998 98.8234 178.262C95.7405 180.399 92.3585 181.023 88.7567 179.933C86.6972 179.309 85.2446 177.955 84.7431 175.763C84.4916 174.666 84.759 173.673 85.5843 172.929C86.5656 172.048 87.6337 171.261 88.6613 170.429L88.9938 170.095L88.6122 169.828C87.5643 169.33 86.7261 168.65 86.4009 167.467C86.2896 167.067 86.4052 166.804 86.7449 166.599C87.323 166.25 87.8982 165.896 88.4691 165.536C88.7379 165.369 89.0039 165.195 89.2539 165.002C89.595 164.741 89.5647 164.548 89.1571 164.397C88.209 164.048 87.3663 163.54 86.7131 162.76C85.6218 161.458 85.3125 159.907 85.4022 158.269C85.5424 155.711 86.9313 154.026 89.1889 152.942C91.8728 151.654 94.5655 151.573 97.3014 152.747C98.3132 153.18 99.3798 153.273 100.465 153.198C101.276 153.14 101.984 152.834 102.619 152.17ZM92.7285 170.498C90.7137 170.481 90.0821 170.729 88.8998 171.933C87.5759 173.283 87.5831 175.155 88.9042 176.511C89.9072 177.538 91.1589 178.02 92.5507 178.164C94.1767 178.332 95.7781 178.264 97.2552 177.45C98.8306 176.579 99.6139 174.96 99.2598 173.33C98.9664 171.984 97.975 171.368 96.7681 171.014C95.3951 170.612 93.9758 170.536 92.7285 170.498ZM88.7712 157.623C88.8449 158.183 88.8752 158.749 88.9995 159.297C89.3218 160.716 89.939 161.964 91.3511 162.595C93.0089 163.34 95.1262 163.02 95.8518 160.693C96.3475 159.145 96.2897 157.472 95.6885 155.961C95.4337 155.271 94.975 154.674 94.3732 154.25C92.9337 153.245 90.3365 153.112 89.2785 155.332C88.9345 156.054 88.8001 156.821 88.7712 157.623Z" fill="#4F382B"/>
<path fill-rule="evenodd" clip-rule="evenodd" d="M68.4356 151.813C68.4891 152.06 68.5961 152.34 68.599 152.622C68.6033 153.158 68.5455 153.694 68.5151 154.231V154.696L68.969 154.349C70.2119 153.326 71.5474 152.454 73.1026 151.985C75.9093 151.139 78.7133 152.675 79.6281 155.534C79.975 156.621 80.1123 157.738 80.1253 158.874C80.1542 161.398 80.1716 163.921 80.1976 166.445C80.2063 167.351 80.3103 167.513 81.1674 167.775C81.6551 167.92 82.1526 168.031 82.6561 168.106C82.9321 168.149 83.0506 168.257 83.0362 168.528L83.0391 168.776C83.029 169.821 82.9567 169.869 81.9435 169.866C79.5183 169.862 77.0945 169.876 74.6693 169.896C73.9466 169.902 73.9452 169.924 73.8729 169.21L73.8585 168.799C73.9033 168.184 73.9177 168.189 74.5233 168.1C74.9309 168.039 75.3356 167.945 75.733 167.841C76.142 167.736 76.3386 167.434 76.3935 167.029C76.421 166.824 76.4571 166.618 76.4557 166.413C76.421 163.655 76.4658 160.895 76.3155 158.142C76.1941 155.914 74.4944 154.588 72.2585 154.739C71.1807 154.814 70.1447 155.186 69.2653 155.813C68.6683 156.231 68.5484 156.834 68.5513 157.483C68.5628 160.061 68.5874 162.639 68.6149 165.219C68.6206 165.784 68.6365 166.35 68.69 166.91C68.7464 167.523 68.9617 167.77 69.563 167.903C70.1382 168.03 70.725 168.104 71.3393 168.207L71.3913 168.681C71.4115 169.786 71.2959 169.869 70.222 169.865C67.7144 169.854 65.2068 169.87 62.7006 169.898C62.3061 169.904 62.1384 169.779 62.1485 169.395L62.1428 169.23C62.0777 168.234 62.1066 168.197 63.049 168.035L63.4941 167.945C64.5145 167.715 64.7761 167.444 64.7906 166.407C64.8383 163.125 64.8556 159.844 64.8888 156.562C64.8932 156.091 64.7154 155.725 64.276 155.53C63.6594 155.26 63.0393 154.998 62.4159 154.744C62.0719 154.602 61.6788 154.512 61.6658 154.037C61.6571 153.702 62.0156 153.405 62.5055 153.306C63.4898 153.106 64.4827 152.94 65.4554 152.696C66.4238 152.454 67.3748 152.131 68.4356 151.813Z" fill="#4F372B"/>
<path fill-rule="evenodd" clip-rule="evenodd" d="M122.656 160.386C122.61 163.452 121.814 165.931 119.646 167.791C116.9 170.151 112.616 170.953 109.114 169.188C107.619 168.435 106.521 167.281 105.805 165.782C104.708 163.477 104.434 161.053 105.006 158.57C105.573 156.114 107.06 154.335 109.286 153.183C111.575 151.999 113.986 151.537 116.528 152.158C119.744 152.943 122.055 155.565 122.515 158.904C122.597 159.489 122.629 160.081 122.656 160.386ZM118.932 162.047L118.807 162.033C118.807 161.744 118.823 161.455 118.805 161.165C118.699 159.365 118.294 157.649 117.251 156.142C116.261 154.714 114.912 153.871 113.158 153.748C111.193 153.609 109.543 154.708 108.963 156.714C108.093 159.726 108.388 162.661 109.917 165.42C110.584 166.623 111.571 167.51 112.893 167.977C115.485 168.889 117.783 167.708 118.458 165.055C118.706 164.075 118.778 163.05 118.932 162.047Z" fill="#4F382B"/>
<path fill-rule="evenodd" clip-rule="evenodd" d="M58.9961 160.623C58.9427 162.823 58.4238 164.856 57.0652 166.624C55.6098 168.517 53.6095 169.529 51.3345 169.956C48.6448 170.459 46.1184 170.002 43.9577 168.197C42.9315 167.338 42.2305 166.238 41.768 164.987C41.0092 162.934 40.8199 160.831 41.2867 158.688C41.7853 156.394 43.0803 154.641 45.0879 153.465C47.4091 152.107 49.9138 151.502 52.5891 152.112C56.0289 152.898 58.0148 155.14 58.749 158.533C58.8964 159.218 58.9166 159.927 58.9961 160.623ZM55.2296 162.074L55.1299 162.06V161.646C55.0736 159.629 54.679 157.707 53.475 156.03C52.5833 154.786 51.3895 154.005 49.8589 153.787C47.3643 153.431 45.7339 154.911 45.1934 156.922C44.4881 159.548 44.7092 162.142 45.8004 164.632C46.4812 166.185 47.5565 167.394 49.2085 167.981C51.784 168.896 54.1168 167.685 54.7686 165.041C55.0085 164.075 55.0808 163.066 55.2296 162.074Z" fill="#4F372B"/>
<path fill-rule="evenodd" clip-rule="evenodd" d="M119.039 48.4814C120.812 53.608 122.087 58.8414 122.508 64.2642C123.028 70.9936 122.791 77.6767 121.372 84.2948L121.189 84.8238C120.744 84.8252 120.29 84.7689 119.855 84.8368C116.18 85.4149 112.509 86.0133 108.836 86.6087C105.04 87.2244 101.24 87.8156 97.4502 88.4717C96.1075 88.703 94.4454 88.4269 93.9034 90.2827L93.6433 90.3709L93.8268 79.2738L93.6404 52.498L95.4094 52.1944C98.3015 51.7218 101.194 51.2405 104.09 50.7795C107.544 50.2317 111.001 49.697 114.459 49.1622C115.985 48.928 117.513 48.7098 119.039 48.4814Z" fill="#439934"/>
<path fill-rule="evenodd" clip-rule="evenodd" d="M89.9923 122.723C88.1264 121.119 86.1955 119.585 84.4076 117.897C74.7847 108.821 67.7446 98.1354 64.2773 85.2533C63.3219 81.7093 62.686 78.1062 62.4808 74.4437C62.3362 71.8798 62.1296 69.2941 62.3117 66.7431C62.793 59.9602 63.7743 53.2424 65.7631 46.7082L65.8729 46.5564C66.0666 46.8137 66.3441 47.042 66.4424 47.3325C68.3849 53.0502 70.3115 58.7736 72.2294 64.5014C78.2549 82.497 84.2732 100.497 90.3088 118.49C90.4273 118.841 90.7323 119.129 90.952 119.445L89.9923 122.723Z" fill="#45A538"/>
<path fill-rule="evenodd" clip-rule="evenodd" d="M119.039 48.4817C117.511 48.7086 115.983 48.9283 114.459 49.1624C111.001 49.6972 107.544 50.2319 104.09 50.7797C101.195 51.2393 98.3029 51.7206 95.4094 52.1947L93.6403 52.4982L93.6259 51.3448C93.5666 50.3967 93.4683 49.4486 93.4553 48.5005L93.2573 30.356C93.2111 26.5707 93.1417 22.7854 93.0651 19.0016C93.0261 16.6498 92.9582 14.2986 92.8613 11.9485C92.8035 10.6867 92.5997 9.43072 92.5188 8.16896C92.4711 7.44341 92.5347 6.71208 92.5506 5.98364C93.4524 7.73103 94.3355 9.49142 95.262 11.2258C96.7261 13.9676 99.0603 15.9881 101.163 18.1922C109.468 26.9089 115.363 37.0377 119.039 48.4817Z" fill="#46A037"/>
<path fill-rule="evenodd" clip-rule="evenodd" d="M93.6448 90.3711L93.9049 90.283C94.4469 88.4272 96.109 88.7033 97.4517 88.472C101.241 87.8158 105.041 87.2247 108.838 86.609C112.51 86.015 116.181 85.4166 119.857 84.8371C120.292 84.7691 120.746 84.8255 121.191 84.824C120.504 87.2753 119.964 89.78 119.092 92.1633C118.102 94.8661 116.906 97.5052 115.635 100.092C113.732 103.95 111.378 107.569 108.621 110.871C106.502 113.418 104.141 115.775 101.775 118.101C100.465 119.386 98.9245 120.434 97.4879 121.59L97.115 121.335L95.7752 120.191L94.3891 117.15C93.4421 113.604 92.9253 109.957 92.8499 106.287L92.8759 105.668L93.0652 102.989C93.1274 102.074 93.2112 101.16 93.2502 100.246C93.389 96.956 93.5133 93.6636 93.6448 90.3711Z" fill="#409433"/>
<path fill-rule="evenodd" clip-rule="evenodd" d="M93.6448 90.3712C93.5147 93.6637 93.3904 96.9575 93.2502 100.25C93.2112 101.166 93.1288 102.08 93.0652 102.993L92.2211 103.313C90.3451 97.7901 88.4676 92.3253 86.6321 86.8476C83.5955 77.784 80.5965 68.7074 77.5642 59.641C75.1156 52.3239 72.6499 45.0125 70.1671 37.7069C70.05 37.3658 69.7176 37.097 69.4863 36.7949L74.8918 26.8555C75.0783 27.1778 75.3225 27.4798 75.4396 27.8267C77.94 35.2267 80.436 42.6282 82.9104 50.0369C86.1306 59.6771 89.329 69.3217 92.5463 78.9634C92.6749 79.3478 92.886 79.7034 93.0883 80.1355L93.8283 79.2741L93.6448 90.3712Z" fill="#4FAA41"/>
<path fill-rule="evenodd" clip-rule="evenodd" d="M69.4849 36.7947C69.7176 37.0967 70.05 37.3656 70.1656 37.7067C72.6486 45.0122 75.1143 52.3235 77.5627 59.6407C80.595 68.7071 83.594 77.7837 86.6306 86.8472C88.4661 92.3249 90.3436 97.7882 92.2196 103.312L93.0637 102.993L92.8743 105.672L92.7023 106.29C92.4089 109.222 92.1618 112.16 91.8034 115.087C91.6241 116.554 91.2411 117.994 90.9506 119.445C90.7324 119.128 90.426 118.841 90.3075 118.489C84.2704 100.497 78.2536 82.4968 72.2281 64.5013C70.311 58.7743 68.382 53.0514 66.441 47.3324C66.3428 47.0419 66.0653 46.8136 65.8716 46.5563L69.4849 36.7947Z" fill="#4AA73C"/>
<path fill-rule="evenodd" clip-rule="evenodd" d="M93.8269 79.274L93.0869 80.1354C92.8845 79.7033 92.6735 79.3477 92.5449 78.9633C89.3276 69.3216 86.1291 59.677 82.909 50.0367C80.4317 42.629 77.9414 35.2256 75.4382 27.8266C75.3211 27.4797 75.0768 27.1776 74.8904 26.8553L81.575 18.062C81.786 18.3424 82.0866 18.5924 82.195 18.909C84.0508 24.3434 85.8892 29.7821 87.719 35.2251C89.4274 40.3098 91.1097 45.4002 92.8383 50.4761C92.9539 50.8157 93.3572 51.0557 93.626 51.3447L93.6405 52.4981L93.8269 79.274Z" fill="#57AE47"/>
<path fill-rule="evenodd" clip-rule="evenodd" d="M93.6261 51.3447C93.3558 51.0571 92.954 50.8172 92.8384 50.4761C91.1113 45.4001 89.4275 40.3098 87.7191 35.2252C85.8908 29.7821 84.0494 24.3434 82.1951 18.9091C82.0867 18.5925 81.7861 18.3425 81.5751 18.0621C83.7488 15.9332 85.8546 13.7276 88.1166 11.697C90.127 9.89322 91.7429 7.9594 91.818 5.1078L91.977 4.53979L92.5493 5.98221C92.5349 6.71065 92.4698 7.44198 92.5175 8.16752C92.5999 9.42928 92.8037 10.6852 92.8601 11.947C92.9656 14.2956 93.0162 16.6486 93.0639 19.0001C93.1405 22.7839 93.2098 26.5692 93.2561 30.3545L93.4541 48.4989C93.4686 49.4484 93.5683 50.3966 93.6261 51.3447Z" fill="#60B24F"/>
<path fill-rule="evenodd" clip-rule="evenodd" d="M90.952 119.444C91.2425 117.993 91.6255 116.553 91.8047 115.086C92.1631 112.161 92.4103 109.221 92.7037 106.288L92.7774 106.277L92.8497 106.29C92.9251 109.959 93.4419 113.607 94.3889 117.153C94.1938 117.41 93.9206 117.637 93.8166 117.926C93.0144 120.189 92.2571 122.472 91.4506 124.733C91.3408 125.043 91.0315 125.284 90.8161 125.554L89.9908 122.722L90.952 119.444Z" fill="#A9AA88"/>
<path fill-rule="evenodd" clip-rule="evenodd" d="M90.8162 125.556C91.0315 125.284 91.3408 125.044 91.4507 124.735C92.2571 122.473 93.0145 120.191 93.8166 117.927C93.9192 117.638 94.1939 117.411 94.389 117.154L95.775 120.195C95.5019 120.582 95.1232 120.934 94.9714 121.366L92.3178 129.159C92.208 129.472 91.8366 129.692 91.5851 129.957L90.8162 125.556Z" fill="#B6B598"/>
<path fill-rule="evenodd" clip-rule="evenodd" d="M91.5852 129.955C91.8352 129.691 92.2081 129.471 92.318 129.157L94.9716 121.364C95.1219 120.932 95.502 120.581 95.7752 120.194L97.1164 121.337C96.4689 121.977 96.109 122.717 96.3258 123.652L95.9183 124.986C95.7333 125.215 95.4644 125.414 95.3734 125.676C94.4469 128.329 93.5638 130.997 92.6302 133.649C92.5116 133.985 92.1836 134.249 91.9538 134.547L91.5852 129.955Z" fill="#C2C1A7"/>
<path fill-rule="evenodd" clip-rule="evenodd" d="M91.9524 134.546C92.1837 134.248 92.5118 133.983 92.6288 133.648C93.5625 130.996 94.447 128.328 95.372 125.674C95.4631 125.413 95.7319 125.215 95.9169 124.985L95.3547 131.107C95.2044 131.281 94.9876 131.432 94.9153 131.633L93.0451 136.993C92.9136 137.358 92.6621 137.685 92.4655 138.027C92.2906 137.799 91.9784 137.578 91.964 137.341C91.9091 136.413 91.9481 135.478 91.9524 134.546Z" fill="#CECDB7"/>
<path fill-rule="evenodd" clip-rule="evenodd" d="M92.4666 138.029C92.6631 137.686 92.9146 137.36 93.0461 136.994L94.9164 131.635C94.9886 131.432 95.2069 131.282 95.3557 131.109L95.3702 135.127L94.0246 138.577L92.4666 138.029Z" fill="#DBDAC7"/>
<path fill-rule="evenodd" clip-rule="evenodd" d="M94.0247 138.576L95.3702 135.126L95.6477 139.208L94.0247 138.576Z" fill="#EBE9DC"/>
<path fill-rule="evenodd" clip-rule="evenodd" d="M96.3242 123.652C96.1089 122.719 96.4673 121.979 97.1148 121.337L97.4877 121.591L96.3242 123.652Z" fill="#CECDB7"/>
<path fill-rule="evenodd" clip-rule="evenodd" d="M92.8496 106.291L92.7773 106.278L92.7036 106.29L92.8756 105.673L92.8496 106.291Z" fill="#4FAA41"/>
</svg>
