<svg width="215" height="215" viewBox="0 0 215 215" fill="none" xmlns="http://www.w3.org/2000/svg">
<path fill-rule="evenodd" clip-rule="evenodd" d="M146.568 168.202C146.852 167.656 147.124 167.174 147.356 166.675C147.502 166.356 147.727 166.292 148.044 166.301C149.947 166.354 151.851 166.413 153.755 166.432C155.373 166.449 156.994 166.418 158.613 166.4C160.437 166.378 162.261 166.282 164.084 166.334C166.511 166.405 168.876 166.88 171.071 167.96C173.693 169.252 175.677 171.219 177.029 173.811C177.879 175.454 178.41 177.244 178.593 179.085C178.882 181.786 178.692 184.425 177.835 187.008C176.774 190.209 174.758 192.66 171.958 194.496C169.803 195.909 167.44 196.743 164.907 197.22C162.226 197.726 159.537 197.563 156.848 197.571C153.898 197.583 150.95 197.519 148.001 197.486C147.485 197.481 147.411 197.383 147.547 196.891L147.673 196.438C147.96 195.534 148.115 195.494 149.032 195.343C149.682 195.24 150.304 195.004 150.858 194.649C151.167 194.444 151.295 193.91 151.415 193.498C151.52 193.139 151.525 192.744 151.528 192.364C151.57 186.612 151.614 180.86 151.637 175.111C151.644 173.656 151.607 172.202 151.528 170.75C151.471 169.734 150.928 169.039 149.719 168.798C148.778 168.612 147.831 168.468 146.885 168.301L146.568 168.202ZM173.571 182.132C173.443 180.986 173.381 179.831 173.176 178.702C172.685 175.993 171.5 173.633 169.417 171.783C166.049 168.795 161.994 168.335 157.745 168.691C156.777 168.772 156.569 169.102 156.554 170.097C156.53 171.508 156.507 172.919 156.505 174.33C156.498 178.804 156.498 183.279 156.505 187.754C156.507 189.027 156.52 190.3 156.557 191.57C156.597 192.87 157.069 193.97 158.343 194.474C160.35 195.269 162.461 195.363 164.567 195.038C167.932 194.523 170.285 192.563 171.864 189.625C173.114 187.293 173.466 184.749 173.571 182.132ZM181.749 197.368C181.709 196.671 181.994 196.095 182.347 195.566C182.443 195.423 182.772 195.43 182.999 195.384L184.924 195.003C185.604 194.859 185.962 194.402 186.057 193.735C186.121 193.295 186.182 192.85 186.187 192.405C186.232 188.883 186.265 185.36 186.286 181.838C186.303 178.311 186.289 174.783 186.289 171.256L186.274 170.582C186.205 169.448 185.658 168.861 184.532 168.694L182.092 168.323C181.791 168.283 181.682 168.138 181.791 167.871C181.979 167.416 182.159 166.944 182.424 166.534C182.523 166.383 182.858 166.324 183.083 166.329C184.248 166.346 185.414 166.433 186.58 166.432L196.727 166.371C198.682 166.37 200.57 166.711 202.323 167.646C204.253 168.674 205.333 170.265 205.643 172.432C205.965 174.708 205.275 176.626 203.612 178.149C202.928 178.777 202.043 179.187 201.25 179.698L200.991 179.859C201.727 180.13 202.428 180.363 203.11 180.642C205.105 181.46 206.692 182.738 207.532 184.779C208.196 186.39 208.196 188.069 207.803 189.739C207.191 192.353 205.469 194.091 203.23 195.406C201.129 196.641 198.855 197.36 196.433 197.481C194.199 197.593 191.955 197.551 189.716 197.576L188.419 197.583C186.261 197.534 184.103 197.48 181.945 197.422L181.749 197.368ZM191.049 187.141H191.071C191.071 188.246 191.056 189.351 191.076 190.456C191.09 191.172 191.065 191.908 191.219 192.596C191.451 193.626 191.921 194.555 193.077 194.85C194.622 195.256 196.236 195.327 197.81 195.059C199.787 194.714 201.364 193.723 202.229 191.84C202.871 190.441 202.967 188.958 202.747 187.443C202.454 185.447 201.395 184 199.633 183.051C198.477 182.427 197.244 182.046 195.931 181.996C194.459 181.94 192.986 181.937 191.515 181.892C191.101 181.88 191.044 182.09 191.046 182.429C191.054 183.998 191.049 185.568 191.049 187.141ZM194.182 179.624C194.987 179.584 195.897 179.572 196.802 179.481C198.536 179.308 199.757 178.436 200.393 176.779C200.718 175.937 200.704 175.07 200.713 174.195C200.738 171.916 199.408 170.048 197.242 169.275C195.571 168.679 193.848 168.669 192.114 168.716C191.412 168.735 191.098 169.042 191.088 169.749L190.984 178.969C190.979 179.335 191.137 179.493 191.493 179.505L194.182 179.624Z" fill="#94795D"/>
<path fill-rule="evenodd" clip-rule="evenodd" d="M17.709 195.596L17.5864 197.182C16.4442 197.182 15.391 197.174 14.3378 197.185C12.3541 197.206 10.3704 197.237 8.38502 197.266L8.19354 197.278C7.90967 197.244 7.394 197.244 7.38057 197.16C7.29658 196.688 7.32346 196.193 7.34529 195.704C7.34697 195.648 7.54014 195.578 7.65268 195.551L9.19631 195.207C10.1588 194.956 10.4981 194.542 10.5434 193.547C10.5955 192.427 10.6476 191.305 10.6526 190.184C10.6677 187.426 10.6509 184.672 10.6627 181.914C10.6644 181.269 10.441 180.788 9.83963 180.526C9.12508 180.209 8.40553 179.903 7.68123 179.609C7.33857 179.471 6.89346 179.396 6.93377 178.936C6.97408 178.467 7.40576 178.344 7.81225 178.252C9.4953 177.867 11.18 177.493 12.858 177.083C13.3989 176.95 13.9162 176.727 14.5629 176.502C14.5965 176.851 14.6587 177.184 14.6519 177.516L14.5528 179.097C14.5512 179.275 14.6435 179.513 14.7762 179.612C14.8569 179.675 15.1273 179.562 15.2617 179.458C16.6961 178.366 18.2146 177.424 19.9463 176.875C22.6288 176.023 24.9316 176.812 26.5441 179.125C27.1119 179.94 27.1136 179.94 27.9013 179.371C29.2535 178.388 30.6678 177.521 32.2501 176.95C35.7236 175.695 39.0612 177.288 40.2689 180.787C40.709 182.056 40.8769 183.368 40.8736 184.709L40.8417 193.608C40.84 194.342 41.0835 194.76 41.7823 194.988C42.5667 195.245 43.3797 195.422 44.2632 195.654L44.0583 197.184C43.0538 197.184 42.13 197.177 41.2062 197.185C38.9487 197.206 36.6912 197.217 34.4353 197.269C34.0423 197.279 33.9398 197.182 33.9197 196.814C33.8542 195.637 33.8441 195.638 34.9527 195.373L35.3256 195.277C36.409 194.982 36.7701 194.649 36.7785 193.551C36.8037 190.396 36.8692 187.233 36.7096 184.085C36.5433 180.82 33.9516 179.082 30.787 179.918C29.7657 180.198 28.8038 180.661 27.9484 181.285C27.6544 181.495 27.599 181.737 27.6225 182.105C27.7115 183.496 27.767 184.888 27.7787 186.281C27.7989 188.718 27.7686 191.155 27.7787 193.594C27.7821 194.582 28.1197 194.96 29.0956 195.188L30.5452 195.522L30.8139 195.583C30.8341 196.047 30.8525 196.51 30.8307 196.974C30.8173 197.264 30.5922 197.29 30.3402 197.284C28.931 197.249 27.52 197.202 26.1108 197.206C24.3958 197.209 22.6825 197.258 20.9693 197.288H20.5661C20.5661 196.796 20.5426 196.325 20.5829 195.857C20.5913 195.744 20.7895 195.586 20.9256 195.551L22.6153 195.193C23.3326 195.017 23.6752 194.649 23.7155 193.92C23.907 190.544 24.0448 187.166 23.7273 183.792C23.6499 183.125 23.465 182.476 23.1797 181.868C22.3147 179.957 20.3679 179.159 18.1222 179.733C17.0556 180.006 16.0931 180.494 15.1827 181.111C14.9842 181.233 14.8211 181.405 14.7097 181.61C14.5983 181.815 14.5425 182.045 14.5478 182.278C14.5478 185.646 14.5596 189.014 14.5696 192.38L14.5881 193.678C14.6083 194.584 14.9929 195.061 15.8916 195.255C16.4694 195.386 17.0539 195.475 17.709 195.596Z" fill="#50382B"/>
<path fill-rule="evenodd" clip-rule="evenodd" d="M119.26 176.846C119.52 178.113 119.515 179.252 118.584 180.115C117.661 180.973 116.492 180.684 115.351 180.493C115.457 181.094 115.574 181.605 115.632 182.122C116.046 185.967 114.392 188.821 110.826 190.452C109.479 191.066 108.049 191.295 106.59 191.412C105.864 191.47 105.229 192.024 105.16 192.62C105.09 193.225 105.469 193.846 106.229 194.028C107.124 194.241 108.058 194.302 108.977 194.407C110.949 194.632 112.942 194.735 114.891 195.088C117.837 195.618 119.481 198.19 118.962 201.15C118.5 203.783 116.975 205.7 114.849 207.17C111.266 209.652 107.336 210.378 103.15 209.111C100.756 208.386 99.0681 206.812 98.4852 204.265C98.193 202.991 98.5037 201.837 99.4628 200.972C100.603 199.947 101.845 199.033 103.039 198.066L103.425 197.678L102.982 197.367C101.764 196.789 100.79 195.998 100.412 194.624C100.283 194.159 100.417 193.853 100.812 193.615C101.483 193.21 102.152 192.798 102.815 192.38C103.128 192.185 103.437 191.984 103.728 191.758C104.124 191.456 104.089 191.231 103.615 191.056C102.513 190.65 101.534 190.06 100.775 189.153C99.5065 187.64 99.147 185.838 99.2512 183.934C99.4141 180.961 101.028 179.003 103.652 177.743C106.771 176.247 109.9 176.152 113.08 177.516C114.256 178.02 115.495 178.128 116.757 178.04C117.699 177.973 118.522 177.617 119.26 176.846ZM107.766 198.146C105.424 198.126 104.69 198.415 103.316 199.814C101.777 201.383 101.786 203.558 103.321 205.134C104.487 206.328 105.941 206.887 107.559 207.055C109.449 207.25 111.31 207.171 113.026 206.226C114.857 205.213 115.768 203.332 115.356 201.437C115.015 199.873 113.863 199.157 112.46 198.746C110.865 198.279 109.215 198.19 107.766 198.146ZM103.167 183.184C103.252 183.834 103.287 184.492 103.432 185.129C103.807 186.778 104.524 188.228 106.165 188.962C108.091 189.827 110.552 189.456 111.395 186.751C111.971 184.952 111.904 183.008 111.206 181.252C110.909 180.449 110.376 179.756 109.677 179.263C108.004 178.096 104.986 177.941 103.756 180.521C103.356 181.36 103.2 182.251 103.167 183.184Z" fill="#4F382B"/>
<path fill-rule="evenodd" clip-rule="evenodd" d="M79.5333 176.431C79.5954 176.718 79.7197 177.044 79.7231 177.371C79.7281 177.995 79.661 178.618 79.6257 179.241V179.782L80.1531 179.379C81.5976 178.189 83.1497 177.177 84.957 176.631C88.219 175.648 91.4776 177.434 92.5408 180.756C92.9439 182.019 93.1035 183.318 93.1186 184.638C93.1522 187.571 93.1724 190.503 93.2026 193.436C93.2127 194.489 93.3336 194.677 94.3297 194.981C94.8965 195.151 95.4746 195.279 96.0597 195.366C96.3806 195.416 96.5183 195.542 96.5015 195.856L96.5048 196.145C96.4931 197.36 96.4091 197.415 95.2316 197.412C92.4131 197.407 89.5963 197.424 86.7778 197.447C85.9379 197.454 85.9363 197.479 85.8523 196.649L85.8355 196.172C85.8876 195.457 85.9043 195.463 86.6081 195.359C87.0818 195.289 87.5521 195.18 88.014 195.059C88.4894 194.936 88.7178 194.585 88.7817 194.115C88.8136 193.876 88.8556 193.638 88.8539 193.399C88.8136 190.194 88.8656 186.986 88.6909 183.786C88.5499 181.198 86.5745 179.656 83.9761 179.832C82.7235 179.919 81.5195 180.351 80.4974 181.08C79.8037 181.566 79.6643 182.266 79.6677 183.02C79.6811 186.017 79.7097 189.013 79.7416 192.012C79.7483 192.668 79.7668 193.325 79.8289 193.977C79.8944 194.689 80.1447 194.976 80.8435 195.131C81.512 195.279 82.1939 195.364 82.9078 195.484L82.9683 196.034C82.9918 197.319 82.8574 197.415 81.6094 197.41C78.6951 197.398 75.7809 197.417 72.8683 197.449C72.4097 197.455 72.2149 197.311 72.2267 196.864L72.2199 196.673C72.1444 195.515 72.178 195.472 73.2731 195.284L73.7904 195.18C74.9763 194.912 75.2803 194.597 75.2971 193.392C75.3526 189.578 75.3727 185.765 75.4113 181.95C75.4164 181.403 75.2098 180.978 74.6992 180.751C73.9826 180.437 73.2619 180.132 72.5374 179.837C72.1376 179.673 71.6808 179.569 71.6656 179.016C71.6556 178.626 72.0721 178.282 72.6415 178.166C73.7854 177.934 74.9394 177.741 76.0698 177.457C77.1952 177.177 78.3004 176.8 79.5333 176.431Z" fill="#4F372B"/>
<path fill-rule="evenodd" clip-rule="evenodd" d="M142.546 186.395C142.493 189.958 141.567 192.838 139.048 195C135.856 197.743 130.878 198.675 126.808 196.624C125.071 195.749 123.794 194.407 122.963 192.665C121.688 189.986 121.369 187.169 122.034 184.284C122.693 181.43 124.421 179.362 127.008 178.023C129.668 176.648 132.47 176.11 135.425 176.833C139.162 177.745 141.848 180.792 142.382 184.672C142.478 185.352 142.514 186.041 142.546 186.395ZM138.218 188.325L138.073 188.308C138.073 187.972 138.092 187.636 138.07 187.3C137.947 185.207 137.477 183.214 136.264 181.462C135.114 179.802 133.547 178.823 131.508 178.68C129.225 178.519 127.307 179.795 126.633 182.127C125.622 185.627 125.965 189.039 127.742 192.245C128.516 193.643 129.663 194.674 131.2 195.217C134.212 196.277 136.883 194.904 137.667 191.82C137.956 190.682 138.04 189.491 138.218 188.325Z" fill="#4F382B"/>
<path fill-rule="evenodd" clip-rule="evenodd" d="M68.5631 186.67C68.5009 189.227 67.8979 191.59 66.319 193.644C64.6276 195.845 62.3029 197.021 59.6591 197.516C56.5332 198.101 53.5971 197.57 51.0859 195.472C49.8934 194.474 49.0787 193.196 48.5412 191.741C47.6594 189.356 47.4393 186.912 47.9819 184.421C48.5614 181.756 50.0664 179.718 52.3995 178.351C55.097 176.774 58.0079 176.07 61.117 176.779C65.1147 177.692 67.4226 180.298 68.2759 184.241C68.4472 185.038 68.4707 185.861 68.5631 186.67ZM64.1858 188.357L64.0699 188.34V187.86C64.0044 185.515 63.5459 183.281 62.1467 181.332C61.1103 179.886 59.7229 178.979 57.9441 178.725C55.045 178.312 53.1503 180.032 52.5221 182.369C51.7024 185.421 51.9594 188.436 53.2275 191.33C54.0187 193.134 55.2684 194.54 57.1882 195.222C60.1815 196.285 62.8925 194.877 63.65 191.805C63.9288 190.681 64.0128 189.509 64.1858 188.357Z" fill="#4F372B"/>
<path fill-rule="evenodd" clip-rule="evenodd" d="M138.342 56.3435C140.403 62.3013 141.885 68.3835 142.374 74.6857C142.978 82.5063 142.703 90.2732 141.053 97.9644L140.842 98.5792C140.324 98.5809 139.797 98.5154 139.291 98.5943C135.02 99.2662 130.754 99.9616 126.486 100.654C122.073 101.369 117.657 102.056 113.253 102.819C111.693 103.087 109.761 102.767 109.131 104.923L108.829 105.026L109.042 92.1292L108.825 61.0114L110.881 60.6586C114.242 60.1094 117.603 59.55 120.969 59.0142C124.984 58.3776 129.002 57.7561 133.02 57.1346C134.793 56.8625 136.569 56.6089 138.342 56.3435Z" fill="#439934"/>
<path fill-rule="evenodd" clip-rule="evenodd" d="M104.586 142.624C102.417 140.76 100.173 138.977 98.0954 137.015C86.912 126.467 78.7303 114.049 74.7007 99.078C73.5904 94.9594 72.8514 90.7719 72.6128 86.5156C72.4449 83.5358 72.2047 80.5308 72.4163 77.5662C72.9757 69.6834 74.1162 61.8762 76.4274 54.2823L76.5551 54.106C76.7802 54.4049 77.1027 54.6703 77.2169 55.0079C79.4744 61.6528 81.7134 68.3044 83.9423 74.961C90.945 95.8748 97.9392 116.794 104.954 137.704C105.091 138.112 105.446 138.447 105.701 138.814L104.586 142.624Z" fill="#45A538"/>
<path fill-rule="evenodd" clip-rule="evenodd" d="M138.342 56.3435C136.567 56.6072 134.792 56.8625 133.02 57.1346C129.002 57.7561 124.984 58.3776 120.969 59.0142C117.605 59.5483 114.244 60.1076 110.881 60.6586L108.825 61.0113L108.808 59.6709C108.74 58.569 108.625 57.4672 108.61 56.3653L108.38 35.2785C108.326 30.8794 108.246 26.4803 108.157 22.0828C108.111 19.3497 108.032 16.6172 107.92 13.8859C107.853 12.4196 107.616 10.9599 107.522 9.49355C107.466 8.65034 107.54 7.80042 107.559 6.95386C108.607 8.9846 109.633 11.0305 110.71 13.0461C112.411 16.2325 115.124 18.5807 117.568 21.1422C127.22 31.2724 134.071 43.0437 138.342 56.3435Z" fill="#46A037"/>
<path fill-rule="evenodd" clip-rule="evenodd" d="M108.83 105.026L109.133 104.923C109.763 102.767 111.694 103.087 113.255 102.819C117.659 102.056 122.075 101.369 126.487 100.654C130.755 99.9632 135.022 99.2678 139.293 98.5942C139.799 98.5153 140.326 98.5808 140.844 98.5791C140.046 101.428 139.417 104.339 138.405 107.109C137.254 110.25 135.863 113.317 134.387 116.323C132.175 120.807 129.439 125.012 126.235 128.85C123.773 131.81 121.028 134.55 118.279 137.252C116.757 138.745 114.966 139.963 113.297 141.307L112.863 141.011L111.306 139.681L109.695 136.147C108.595 132.026 107.994 127.787 107.907 123.522L107.937 122.804L108.157 119.689C108.229 118.626 108.327 117.565 108.372 116.501C108.533 112.678 108.678 108.852 108.83 105.026Z" fill="#409433"/>
<path fill-rule="evenodd" clip-rule="evenodd" d="M108.83 105.026C108.679 108.852 108.535 112.68 108.372 116.507C108.327 117.571 108.231 118.633 108.157 119.695L107.176 120.066C104.996 113.648 102.814 107.297 100.681 100.931C97.1516 90.3974 93.6662 79.849 90.1422 69.3123C87.2966 60.8086 84.431 52.3116 81.5456 43.8213C81.4095 43.4249 81.0232 43.1125 80.7545 42.7614L87.0365 31.2102C87.2532 31.5848 87.537 31.9358 87.6731 32.339C90.579 40.939 93.4798 49.5407 96.3554 58.1507C100.098 69.3543 103.815 80.5628 107.554 91.7681C107.703 92.2149 107.949 92.6281 108.184 93.1303L109.044 92.1292L108.83 105.026Z" fill="#4FAA41"/>
<path fill-rule="evenodd" clip-rule="evenodd" d="M80.7527 42.7615C81.0232 43.1125 81.4095 43.425 81.5439 43.8214C84.4295 52.3115 87.2951 60.8085 90.1405 69.3122C93.6645 79.8489 97.1498 90.3973 100.679 100.931C102.812 107.297 104.994 113.646 107.174 120.066L108.155 119.694L107.935 122.809L107.735 123.526C107.394 126.934 107.107 130.349 106.69 133.75C106.482 135.455 106.037 137.128 105.699 138.814C105.446 138.446 105.09 138.112 104.952 137.704C97.9359 116.794 90.9434 95.8748 83.9408 74.961C81.7128 68.3054 79.471 61.6544 77.2153 55.0081C77.1011 54.6704 76.7786 54.405 76.5535 54.1061L80.7527 42.7615Z" fill="#4AA73C"/>
<path fill-rule="evenodd" clip-rule="evenodd" d="M109.042 92.1292L108.182 93.1303C107.947 92.6281 107.702 92.2149 107.552 91.7681C103.813 80.5629 100.096 69.3543 96.3537 58.1508C93.4747 49.5418 90.5806 40.9378 87.6714 32.339C87.5353 31.9358 87.2515 31.5848 87.0348 31.2102L94.8034 20.991C95.0486 21.3168 95.398 21.6074 95.5239 21.9753C97.6807 28.2909 99.8172 34.6116 101.944 40.9373C103.929 46.8464 105.884 52.7623 107.893 58.6614C108.028 59.0561 108.496 59.335 108.809 59.6709L108.825 61.0113L109.042 92.1292Z" fill="#57AE47"/>
<path fill-rule="evenodd" clip-rule="evenodd" d="M108.809 59.6708C108.495 59.3365 108.028 59.0577 107.893 58.6613C105.886 52.7622 103.929 46.8464 101.944 40.9372C99.8189 34.6115 97.679 28.2908 95.524 21.9753C95.398 21.6074 95.0486 21.3169 94.8034 20.991C97.3297 18.5168 99.777 15.9536 102.406 13.5937C104.742 11.4974 106.62 9.25001 106.707 5.93599L106.892 5.27588L107.557 6.9522C107.54 7.79876 107.465 8.64868 107.52 9.49189C107.616 10.9582 107.853 12.4179 107.918 13.8843C108.041 16.6137 108.1 19.3483 108.155 22.0811C108.244 26.4785 108.325 30.8776 108.379 35.2767L108.609 56.3635C108.626 57.467 108.741 58.5689 108.809 59.6708Z" fill="#60B24F"/>
<path fill-rule="evenodd" clip-rule="evenodd" d="M105.701 138.813C106.039 137.127 106.484 135.454 106.692 133.749C107.108 130.349 107.396 126.933 107.737 123.524L107.822 123.511L107.906 123.526C107.994 127.791 108.595 132.029 109.695 136.151C109.468 136.45 109.151 136.713 109.03 137.049C108.098 139.68 107.218 142.332 106.28 144.961C106.153 145.32 105.793 145.601 105.543 145.915L104.584 142.622L105.701 138.813Z" fill="#A9AA88"/>
<path fill-rule="evenodd" clip-rule="evenodd" d="M105.543 145.916C105.793 145.6 106.153 145.322 106.281 144.962C107.218 142.333 108.098 139.681 109.03 137.051C109.149 136.715 109.469 136.451 109.695 136.152L111.306 139.686C110.989 140.136 110.549 140.544 110.372 141.047L107.288 150.104C107.161 150.468 106.729 150.723 106.437 151.031L105.543 145.916Z" fill="#B6B598"/>
<path fill-rule="evenodd" clip-rule="evenodd" d="M106.437 151.029C106.727 150.722 107.161 150.466 107.288 150.102L110.372 141.045C110.547 140.543 110.989 140.134 111.306 139.684L112.865 141.013C112.113 141.757 111.694 142.617 111.946 143.704L111.473 145.254C111.258 145.52 110.945 145.751 110.839 146.055C109.763 149.139 108.736 152.24 107.651 155.322C107.514 155.712 107.132 156.019 106.865 156.365L106.437 151.029Z" fill="#C2C1A7"/>
<path fill-rule="evenodd" clip-rule="evenodd" d="M106.864 156.364C107.132 156.018 107.514 155.71 107.65 155.321C108.735 152.239 109.763 149.138 110.838 146.054C110.944 145.75 111.256 145.52 111.471 145.253L110.818 152.368C110.643 152.569 110.391 152.746 110.307 152.979L108.133 159.208C107.981 159.633 107.688 160.012 107.46 160.41C107.257 160.145 106.894 159.888 106.877 159.612C106.813 158.534 106.859 157.447 106.864 156.364Z" fill="#CECDB7"/>
<path fill-rule="evenodd" clip-rule="evenodd" d="M107.461 160.412C107.69 160.014 107.982 159.634 108.135 159.209L110.308 152.981C110.392 152.746 110.646 152.571 110.819 152.369L110.836 157.039L109.272 161.048L107.461 160.412Z" fill="#DBDAC7"/>
<path fill-rule="evenodd" clip-rule="evenodd" d="M109.272 161.048L110.836 157.039L111.158 161.782L109.272 161.048Z" fill="#EBE9DC"/>
<path fill-rule="evenodd" clip-rule="evenodd" d="M111.944 143.704C111.694 142.619 112.111 141.759 112.863 141.013L113.297 141.309L111.944 143.704Z" fill="#CECDB7"/>
<path fill-rule="evenodd" clip-rule="evenodd" d="M107.906 123.528L107.822 123.513L107.737 123.526L107.937 122.809L107.906 123.528Z" fill="#4FAA41"/>
</svg>
