<svg width="185" height="185" viewBox="0 0 185 185" fill="none" xmlns="http://www.w3.org/2000/svg">
<path d="M168.296 141.497C158.377 141.226 150.802 142.15 144.326 144.88C142.486 145.656 139.549 145.678 139.248 147.983C140.26 149.043 140.417 150.627 141.221 151.93C142.767 154.431 145.378 157.787 147.708 159.544C150.254 161.467 152.877 163.52 155.606 165.184C160.46 168.143 165.878 169.834 170.551 172.798C173.305 174.547 176.041 176.748 178.728 178.719C180.058 179.695 180.95 181.211 182.677 181.822V181.542C181.769 180.386 181.535 178.799 180.703 177.592L177.036 173.925C173.451 169.167 168.9 164.987 164.063 161.517C160.205 158.748 151.572 155.008 149.964 150.52L149.682 150.238C152.416 149.929 155.618 148.94 158.143 148.262C162.383 147.126 166.173 147.42 170.551 146.289L176.472 144.597V143.47C174.259 141.199 172.681 138.193 170.269 136.138C163.953 130.761 157.062 125.389 149.965 120.908C146.028 118.425 141.165 116.811 136.992 114.705C135.589 113.995 133.123 113.627 132.196 112.447C130.004 109.655 128.812 106.114 127.122 102.861C123.582 96.0431 120.106 88.5983 116.97 81.4252C114.831 76.5343 113.433 71.7127 110.765 67.3247C97.9599 46.2709 84.1774 33.5651 62.8258 21.0747C58.2817 18.4182 52.8112 17.3704 47.0299 15.9973C43.9298 15.8109 40.8267 15.6215 37.725 15.4322C35.8302 14.6431 33.8617 12.3262 32.0854 11.2018C25.0121 6.73288 6.86761 -2.98685 1.62979 9.7926C-1.67853 17.8589 6.57421 25.7272 9.52409 29.816C11.5967 32.6806 14.2488 35.8964 15.7288 39.1209C16.703 41.2412 16.8706 43.3672 17.7046 45.6089C19.7526 51.1329 21.5375 57.1425 24.1897 62.2459C25.5295 64.8301 27.0066 67.5502 28.7019 69.8598C29.7397 71.2777 31.5217 71.902 31.8021 74.0902C30.062 76.527 29.9623 80.3109 28.9838 83.398C24.5756 97.2947 26.2391 114.569 32.6505 124.854C34.6162 128.013 39.2513 134.785 45.6222 132.186C51.1953 129.917 49.9509 122.881 51.5451 116.675C51.905 115.269 51.6839 114.234 52.3906 113.291V113.573L57.468 123.725C61.2258 129.777 67.8916 136.1 73.5428 140.366C76.4724 142.579 78.7791 146.404 82.5673 147.699V147.415H82.2855C81.5512 146.272 80.4022 145.798 79.4657 144.879C77.2587 142.715 74.8045 140.025 72.9805 137.547C67.841 130.57 63.2998 122.935 59.1619 114.987C57.1847 111.19 55.4662 107.004 53.8012 103.141C53.1595 101.652 53.1682 99.3991 51.8298 98.6288C50.0044 101.459 47.3176 103.748 45.9069 107.09C43.6508 112.431 43.3603 118.947 42.5235 125.702C42.0292 125.879 42.2489 125.757 41.9584 125.983C38.03 125.036 36.6512 120.994 35.19 117.523C31.4986 108.75 30.8121 94.6267 34.0612 84.5283C34.9023 81.9137 38.7006 73.687 37.1628 71.2719C36.4286 68.864 34.0062 67.4707 32.652 65.6308C30.974 63.3559 29.3003 60.3612 28.1368 57.7336C25.1161 50.8959 23.7055 43.2169 20.5244 36.3025C19.0025 32.9971 16.4312 29.6512 14.3196 26.7143C11.9826 23.458 9.36366 21.0603 7.55124 17.1247C6.90663 15.7256 6.03222 13.4854 6.98612 12.0473C7.28964 11.0775 7.72034 10.6728 8.67858 10.3563C10.3147 9.09452 14.8703 10.7754 16.5729 11.4822C21.0953 13.3611 24.8704 15.1504 28.7019 17.6883C30.5389 18.9082 32.4005 21.2655 34.6234 21.9188H37.1614C41.1316 22.8308 45.5789 22.2006 49.289 23.328C55.8449 25.3196 61.7201 28.4198 67.0548 31.7888C83.3087 42.0534 96.5999 56.6627 105.691 74.0917C107.154 76.8985 107.787 79.5752 109.074 82.5525C111.673 88.5549 114.947 94.7307 117.532 100.602C120.114 106.458 122.628 112.368 126.276 117.241C128.194 119.803 135.6 121.177 138.968 122.601C141.326 123.597 145.193 124.637 147.429 125.983C151.697 128.558 155.833 131.624 159.838 134.445C161.837 135.854 167.99 138.949 168.296 141.497ZM42.2373 34.0507C40.1691 34.0117 38.7064 34.2762 37.1599 34.613V34.8948H37.4417C38.4289 36.9211 40.1705 38.2277 41.3889 39.9722C42.3284 41.9479 43.2693 43.9208 44.2101 45.8936L44.4905 45.6147C46.2379 44.3818 47.0372 42.4148 47.0271 39.4085C46.3275 38.6728 46.2249 37.7507 45.6179 36.872C44.8143 35.6998 43.2548 35.0335 42.2373 34.0507Z" fill="#00618A"/>
</svg>
