<svg width="215" height="215" viewBox="0 0 215 215" fill="none" xmlns="http://www.w3.org/2000/svg">
<path d="M196.436 164.285C184.908 163.971 176.105 165.044 168.578 168.217C166.44 169.119 163.027 169.145 162.678 171.824C163.854 173.055 164.037 174.896 164.971 176.411C166.768 179.317 169.801 183.217 172.509 185.259C175.469 187.493 178.517 189.88 181.688 191.814C187.329 195.252 193.626 197.217 199.056 200.662C202.258 202.695 205.438 205.253 208.56 207.544C210.105 208.678 211.142 210.44 213.149 211.15V210.824C212.094 209.481 211.822 207.636 210.855 206.234L206.593 201.972C202.428 196.443 197.138 191.585 191.516 187.552C187.033 184.334 177 179.987 175.131 174.772L174.803 174.444C177.981 174.085 181.702 172.936 184.636 172.148C189.564 170.828 193.969 171.169 199.056 169.855L205.938 167.888V166.578C203.367 163.939 201.532 160.445 198.729 158.057C191.389 151.809 183.38 145.565 175.133 140.358C170.557 137.472 164.905 135.596 160.056 133.149C158.425 132.324 155.559 131.896 154.483 130.525C151.934 127.28 150.549 123.165 148.585 119.384C144.472 111.461 140.432 102.809 136.787 94.4724C134.301 88.7883 132.677 83.1849 129.576 78.0853C114.694 53.6173 98.6766 38.8512 73.8626 24.3353C68.5816 21.2481 62.224 20.0303 55.5053 18.4346C51.9023 18.2179 48.2961 17.9979 44.6914 17.7778C42.4894 16.8607 40.2016 14.1682 38.1373 12.8614C29.9169 7.66779 8.83011 -3.6281 2.74292 11.2237C-1.10189 20.598 8.48913 29.7422 11.9174 34.4941C14.326 37.8232 17.4083 41.5605 19.1283 45.3079C20.2604 47.772 20.4552 50.2428 21.4244 52.848C23.8045 59.2678 25.8789 66.2519 28.9612 72.1829C30.5182 75.1862 32.2349 78.3474 34.2052 81.0315C35.4112 82.6793 37.4822 83.4049 37.8081 85.948C35.7857 88.7799 35.6698 93.1773 34.5327 96.7652C29.4096 112.915 31.343 132.991 38.7941 144.944C41.0784 148.615 46.4652 156.485 53.8693 153.465C60.3461 150.828 58.8999 142.651 60.7526 135.438C61.1709 133.804 60.9139 132.601 61.7352 131.506V131.834L67.636 143.632C72.0032 150.665 79.7499 158.013 86.3175 162.972C89.7222 165.543 92.403 169.988 96.8054 171.493V171.164H96.4779C95.6246 169.835 94.2893 169.284 93.2008 168.216C90.6359 165.701 87.7838 162.575 85.6641 159.695C79.6911 151.587 74.4135 142.713 69.6046 133.476C67.3068 129.064 65.3096 124.199 63.3746 119.71C62.6288 117.98 62.6389 115.361 61.0835 114.466C58.9621 117.755 55.8395 120.415 54.2002 124.299C51.5782 130.507 51.2405 138.079 50.268 145.93C49.6936 146.135 49.9489 145.993 49.6112 146.255C45.0459 145.155 43.4434 140.457 41.7453 136.424C37.4553 126.229 36.6575 109.815 40.4334 98.0787C41.411 95.0401 45.8252 85.4793 44.038 82.6726C43.1848 79.8742 40.3696 78.255 38.7957 76.1168C36.8456 73.4729 34.9005 69.9926 33.5484 66.9389C30.0378 58.9923 28.3985 50.0681 24.7015 42.0325C22.9328 38.1911 19.9446 34.3026 17.4906 30.8895C14.7745 27.1051 11.7309 24.3185 9.6246 19.7447C8.87546 18.1188 7.85925 15.5153 8.96784 13.844C9.32058 12.7169 9.82112 12.2466 10.9348 11.8788C12.8362 10.4124 18.1305 12.3659 20.1092 13.1872C25.365 15.3708 29.7523 17.4503 34.2052 20.3998C36.34 21.8175 38.5035 24.5571 41.0868 25.3163H44.0364C48.6505 26.3762 53.8189 25.6438 58.1306 26.954C65.7497 29.2686 72.5776 32.8715 78.7773 36.7869C97.6671 48.716 113.114 65.6943 123.679 85.9496C125.379 89.2116 126.114 92.3224 127.611 95.7825C130.631 102.758 134.435 109.936 137.44 116.758C140.44 123.565 143.363 130.433 147.603 136.097C149.831 139.073 158.438 140.671 162.352 142.325C165.093 143.482 169.586 144.692 172.185 146.255C177.145 149.249 181.952 152.811 186.607 156.09C188.93 157.728 196.08 161.324 196.436 164.285ZM49.9354 39.4156C47.5318 39.3702 45.8319 39.6776 44.0347 40.069V40.3965H44.3622C45.5094 42.7514 47.5335 44.2699 48.9494 46.2972C50.0412 48.5934 51.1347 50.8862 52.2282 53.1789L52.5541 52.8547C54.5848 51.422 55.5137 49.1359 55.5019 45.6422C54.6889 44.7872 54.5697 43.7156 53.8642 42.6943C52.9303 41.3321 51.1179 40.5578 49.9354 39.4156Z" fill="#00618A"/>
</svg>
