<svg width="185" height="185" viewBox="0 0 185 185" fill="none" xmlns="http://www.w3.org/2000/svg">
<path d="M165.235 116.708C164.816 116.708 164.4 116.598 164.033 116.384L160.203 114.118C159.63 113.798 159.909 113.684 160.098 113.619C160.862 113.353 161.016 113.291 161.83 112.831C161.915 112.784 162.026 112.801 162.115 112.853L165.056 114.6C165.111 114.63 165.172 114.645 165.234 114.645C165.296 114.645 165.357 114.63 165.411 114.6L176.883 107.979C176.937 107.948 176.982 107.902 177.013 107.848C177.043 107.793 177.06 107.731 177.059 107.669V94.4296C177.059 94.366 177.043 94.3035 177.012 94.2481C176.981 94.1926 176.936 94.1461 176.881 94.1131L165.414 87.4979C165.36 87.468 165.299 87.4524 165.237 87.4524C165.175 87.4524 165.114 87.468 165.06 87.4979L153.595 94.1145C153.54 94.1474 153.495 94.1936 153.463 94.2487C153.432 94.3038 153.415 94.3661 153.414 94.4296V107.669C153.414 107.796 153.485 107.916 153.595 107.975L156.737 109.792C158.442 110.643 159.487 109.64 159.487 108.631V95.5584C159.487 95.3748 159.636 95.2289 159.819 95.2289H161.275C161.456 95.2289 161.606 95.3748 161.606 95.5584V108.631C161.606 110.906 160.367 112.211 158.209 112.211C157.546 112.211 157.024 112.211 155.567 111.494L152.56 109.763C152.194 109.55 151.89 109.244 151.679 108.877C151.468 108.51 151.357 108.094 151.357 107.67V94.4311C151.357 93.5711 151.815 92.7689 152.56 92.3411L164.031 85.7115C164.401 85.5102 164.815 85.4048 165.236 85.4048C165.657 85.4048 166.071 85.5102 166.44 85.7115L177.912 92.3411C178.655 92.7704 179.116 93.5725 179.116 94.4311V107.67C179.115 108.094 179.004 108.51 178.792 108.877C178.581 109.244 178.278 109.549 177.912 109.763L166.44 116.385C166.074 116.598 165.658 116.709 165.235 116.708ZM168.78 107.586C163.758 107.586 162.707 105.281 162.707 103.349C162.708 103.261 162.743 103.177 162.805 103.115C162.867 103.052 162.952 103.018 163.04 103.018H164.523C164.602 103.017 164.679 103.045 164.739 103.097C164.8 103.148 164.84 103.22 164.852 103.298C165.075 104.808 165.744 105.57 168.78 105.57C171.196 105.57 172.225 105.024 172.225 103.74C172.225 103 171.933 102.453 168.178 102.084C165.039 101.773 163.097 101.081 163.097 98.5675C163.097 96.2536 165.049 94.8719 168.318 94.8719C171.993 94.8719 173.812 96.1481 174.041 98.8855C174.045 98.9316 174.039 98.9779 174.024 99.0216C174.009 99.0654 173.986 99.1056 173.955 99.1399C173.923 99.1728 173.886 99.199 173.844 99.2172C173.802 99.2353 173.757 99.2449 173.712 99.2454H172.222C172.147 99.2455 172.074 99.2199 172.015 99.1728C171.956 99.1258 171.916 99.0601 171.899 98.9867C171.541 97.3968 170.674 96.8895 168.316 96.8895C165.679 96.8895 165.372 97.8102 165.372 98.4967C165.372 99.3307 165.734 99.5735 169.296 100.045C172.822 100.511 174.497 101.171 174.497 103.649C174.498 106.154 172.414 107.586 168.78 107.586Z" fill="#83CD29"/>
<path d="M141.615 98.9027C142.067 98.6382 142.346 98.1555 142.346 97.6308V94.2286C142.346 93.7053 142.068 93.2226 141.615 92.9581L129.526 85.9397C129.302 85.8097 129.049 85.741 128.79 85.7405C128.531 85.74 128.277 85.8077 128.053 85.9368L115.889 92.9596C115.666 93.0887 115.481 93.2741 115.352 93.4974C115.223 93.7206 115.156 93.9737 115.155 94.2314V108.274C115.155 108.802 115.439 109.29 115.898 109.552L127.985 116.439C128.43 116.694 128.977 116.696 129.426 116.447L136.737 112.383C136.85 112.32 136.945 112.228 137.012 112.116C137.078 112.004 137.114 111.876 137.115 111.746C137.116 111.616 137.082 111.488 137.017 111.375C136.952 111.262 136.858 111.169 136.745 111.104L124.506 104.08C124.394 104.016 124.301 103.923 124.236 103.812C124.171 103.7 124.137 103.573 124.136 103.444V99.0414C124.136 98.7784 124.277 98.537 124.504 98.4069L128.315 96.2101C128.426 96.1455 128.553 96.1115 128.681 96.1115C128.81 96.1115 128.936 96.1455 129.048 96.2101L132.859 98.4069C132.971 98.471 133.064 98.5634 133.128 98.6747C133.193 98.7861 133.227 98.9126 133.227 99.0414V102.504C133.227 102.634 133.26 102.761 133.325 102.874C133.389 102.986 133.482 103.079 133.595 103.144C133.707 103.208 133.834 103.242 133.964 103.241C134.093 103.241 134.22 103.206 134.332 103.14L141.615 98.9027Z" fill="#404137"/>
<path d="M128.61 98.2435C128.653 98.2194 128.701 98.2068 128.751 98.2068C128.8 98.2068 128.848 98.2194 128.891 98.2435L131.226 99.5919C131.312 99.6425 131.366 99.7365 131.366 99.8362V102.532C131.366 102.633 131.312 102.725 131.226 102.776L128.891 104.123C128.849 104.148 128.8 104.161 128.751 104.161C128.701 104.161 128.652 104.148 128.61 104.123L126.277 102.776C126.234 102.751 126.198 102.716 126.173 102.673C126.148 102.63 126.135 102.581 126.135 102.532V99.8362C126.135 99.7365 126.189 99.6425 126.277 99.5919L128.61 98.2435Z" fill="#83CD29"/>
<path d="M96.9559 103.851C96.9559 103.981 96.8866 104.103 96.7724 104.169L92.5954 106.577C92.5398 106.61 92.4764 106.627 92.4119 106.627C92.3473 106.627 92.284 106.61 92.2283 106.577L88.0513 104.169C87.9956 104.137 87.9494 104.091 87.9172 104.035C87.8849 103.979 87.8679 103.916 87.8678 103.851V99.0269C87.8678 98.8968 87.9386 98.774 88.0513 98.7075L92.2283 96.2967C92.284 96.2633 92.3477 96.2457 92.4126 96.2457C92.4775 96.2457 92.5412 96.2633 92.5969 96.2967L96.7753 98.7075C96.8306 98.7405 96.8765 98.7872 96.9084 98.8432C96.9403 98.8992 96.9572 98.9625 96.9574 99.0269L96.9559 103.851ZM98.0847 68.129C97.9727 68.0678 97.8468 68.0367 97.7192 68.0387C97.5915 68.0406 97.4666 68.0756 97.3566 68.1403C97.2465 68.2049 97.1551 68.297 97.0912 68.4075C97.0273 68.5179 96.9932 68.6431 96.9921 68.7707V87.4369C96.9917 87.527 96.9679 87.6153 96.9231 87.6934C96.8782 87.7714 96.8138 87.8365 96.7362 87.8821C96.6579 87.9268 96.5692 87.9504 96.479 87.9504C96.3887 87.9504 96.3001 87.9268 96.2217 87.8821L93.175 86.126C92.9519 85.9976 92.6989 85.9299 92.4415 85.9299C92.184 85.9299 91.9311 85.9976 91.708 86.126L79.5413 93.1474C79.3178 93.2764 79.1321 93.462 79.003 93.6855C78.8739 93.909 78.8058 94.1626 78.8057 94.4207V108.468C78.8057 108.992 79.0861 109.477 79.5399 109.741L91.7065 116.767C92.1604 117.03 92.7212 117.03 93.1764 116.767L105.346 109.741C105.569 109.612 105.754 109.426 105.883 109.202C106.012 108.979 106.08 108.726 106.08 108.468V73.4521C106.08 72.9202 105.791 72.4288 105.327 72.1687L98.0847 68.129Z" fill="#404137"/>
<path d="M55.2659 85.8617C55.489 85.7326 55.7423 85.6646 56.0001 85.6646C56.2579 85.6646 56.5112 85.7326 56.7343 85.8617L68.901 92.8816C69.3548 93.1446 69.6352 93.6303 69.6352 94.1549V108.206C69.6352 108.731 69.3548 109.217 68.901 109.48L56.7358 116.505C56.5122 116.634 56.2588 116.701 56.0008 116.701C55.7429 116.701 55.4895 116.634 55.2659 116.505L43.1036 109.48C42.8805 109.35 42.6953 109.164 42.5665 108.941C42.4376 108.717 42.3697 108.464 42.3694 108.206V94.1535C42.3694 93.6303 42.6498 93.1446 43.1036 92.8816L55.2659 85.8617Z" fill="#83CD29"/>
<path d="M33.1411 94.0379C33.1411 93.5089 32.8636 93.0233 32.4069 92.7617L20.2446 85.7621C20.0403 85.6436 19.8099 85.5776 19.574 85.5698H19.4482C19.2123 85.5778 18.9819 85.6438 18.7776 85.7621L6.61384 92.7617C6.39007 92.8912 6.20431 93.0773 6.07518 93.3013C5.94606 93.5253 5.87812 93.7794 5.87817 94.0379L5.90419 112.885C5.90419 113.148 6.04149 113.392 6.2713 113.519C6.38134 113.586 6.50756 113.621 6.63624 113.621C6.76492 113.621 6.89115 113.586 7.00118 113.519L14.2277 109.38C14.6845 109.108 14.9634 108.63 14.9634 108.105V99.3003C14.9634 98.7742 15.2409 98.29 15.6962 98.027L18.7747 96.255C18.9972 96.1243 19.2508 96.0559 19.5089 96.057C19.7604 96.057 20.0177 96.1206 20.2417 96.255L23.3173 98.027C23.7726 98.29 24.053 98.7742 24.053 99.3003V108.105C24.053 108.63 24.3348 109.111 24.7887 109.38L32.0152 113.519C32.1267 113.583 32.2528 113.616 32.3812 113.616C32.5095 113.616 32.6356 113.582 32.7467 113.518C32.8578 113.453 32.9502 113.361 33.0146 113.25C33.079 113.139 33.1131 113.013 33.1137 112.885L33.1411 94.0379Z" fill="#404137"/>
</svg>
