<svg width="215" height="215" viewBox="0 0 215 215" fill="none" xmlns="http://www.w3.org/2000/svg">
<path d="M192.03 135.633C191.543 135.633 191.059 135.506 190.633 135.257L186.181 132.623C185.516 132.252 185.84 132.119 186.06 132.044C186.947 131.735 187.127 131.662 188.073 131.128C188.172 131.073 188.301 131.093 188.404 131.153L191.822 133.184C191.885 133.218 191.956 133.236 192.028 133.236C192.1 133.236 192.171 133.218 192.235 133.184L205.567 125.49C205.629 125.453 205.681 125.4 205.717 125.336C205.753 125.273 205.772 125.201 205.772 125.128V109.742C205.772 109.669 205.753 109.596 205.717 109.531C205.68 109.467 205.628 109.413 205.565 109.375L192.238 101.687C192.175 101.652 192.105 101.634 192.033 101.634C191.961 101.634 191.89 101.652 191.827 101.687L178.502 109.376C178.439 109.414 178.386 109.468 178.349 109.532C178.313 109.596 178.293 109.669 178.292 109.742V125.128C178.292 125.276 178.374 125.416 178.502 125.484L182.153 127.596C184.136 128.585 185.35 127.419 185.35 126.247V111.054C185.35 110.841 185.523 110.671 185.736 110.671H187.428C187.638 110.671 187.812 110.841 187.812 111.054V126.247C187.812 128.891 186.373 130.408 183.865 130.408C183.094 130.408 182.488 130.408 180.795 129.575L177.299 127.562C176.874 127.314 176.521 126.959 176.276 126.533C176.031 126.106 175.902 125.622 175.902 125.13V109.744C175.902 108.745 176.434 107.813 177.299 107.315L190.631 99.6106C191.06 99.3767 191.542 99.2542 192.031 99.2542C192.52 99.2542 193.001 99.3767 193.431 99.6106L206.763 107.315C207.626 107.814 208.162 108.746 208.162 109.744V125.13C208.161 125.622 208.031 126.106 207.786 126.532C207.54 126.959 207.188 127.314 206.763 127.562L193.431 135.259C193.005 135.505 192.522 135.635 192.03 135.633ZM196.15 125.033C190.313 125.033 189.092 122.354 189.092 120.108C189.093 120.006 189.134 119.908 189.206 119.836C189.278 119.764 189.376 119.723 189.479 119.723H191.202C191.294 119.723 191.383 119.755 191.454 119.815C191.524 119.875 191.57 119.958 191.585 120.049C191.844 121.804 192.621 122.689 196.15 122.689C198.957 122.689 200.153 122.055 200.153 120.563C200.153 119.703 199.814 119.066 195.45 118.638C191.802 118.277 189.546 117.472 189.546 114.551C189.546 111.862 191.813 110.256 195.613 110.256C199.884 110.256 201.997 111.74 202.264 114.921C202.269 114.974 202.262 115.028 202.244 115.079C202.227 115.13 202.2 115.177 202.164 115.217C202.127 115.255 202.083 115.285 202.035 115.306C201.986 115.327 201.934 115.339 201.881 115.339H200.15C200.062 115.339 199.978 115.31 199.909 115.255C199.841 115.2 199.794 115.124 199.775 115.039C199.359 113.191 198.351 112.601 195.611 112.601C192.546 112.601 192.19 113.671 192.19 114.469C192.19 115.438 192.61 115.72 196.75 116.268C200.847 116.811 202.794 117.577 202.794 120.457C202.795 123.368 200.373 125.033 196.15 125.033Z" fill="#83CD29"/>
<path d="M164.579 114.941C165.105 114.634 165.429 114.073 165.429 113.463V109.509C165.429 108.901 165.106 108.34 164.579 108.033L150.53 99.876C150.27 99.725 149.975 99.6451 149.675 99.6445C149.374 99.6439 149.079 99.7226 148.819 99.8727L134.682 108.034C134.423 108.184 134.208 108.4 134.058 108.659C133.908 108.919 133.829 109.213 133.829 109.512V125.832C133.829 126.445 134.158 127.013 134.692 127.317L148.74 135.321C149.257 135.618 149.892 135.62 150.414 135.331L158.91 130.608C159.042 130.534 159.153 130.427 159.23 130.297C159.307 130.167 159.348 130.019 159.349 129.867C159.35 129.716 159.311 129.567 159.236 129.436C159.16 129.305 159.051 129.196 158.92 129.121L144.697 120.958C144.566 120.883 144.458 120.776 144.382 120.646C144.307 120.516 144.267 120.369 144.267 120.219V115.102C144.267 114.797 144.43 114.516 144.693 114.365L149.123 111.812C149.252 111.737 149.399 111.697 149.548 111.697C149.698 111.697 149.845 111.737 149.974 111.812L154.404 114.365C154.533 114.439 154.641 114.547 154.717 114.676C154.792 114.806 154.832 114.953 154.832 115.102V119.127C154.831 119.277 154.87 119.425 154.945 119.556C155.02 119.686 155.128 119.795 155.258 119.87C155.389 119.945 155.537 119.984 155.687 119.984C155.838 119.983 155.985 119.942 156.115 119.866L164.579 114.941Z" fill="#404137"/>
<path d="M149.465 114.175C149.515 114.147 149.572 114.132 149.629 114.132C149.686 114.132 149.743 114.147 149.793 114.175L152.506 115.742C152.606 115.801 152.669 115.91 152.669 116.026V119.159C152.669 119.276 152.606 119.384 152.506 119.442L149.793 121.008C149.743 121.037 149.687 121.052 149.629 121.052C149.572 121.052 149.515 121.037 149.465 121.008L146.754 119.442C146.704 119.414 146.663 119.373 146.634 119.323C146.605 119.273 146.59 119.216 146.59 119.159V116.026C146.59 115.91 146.652 115.801 146.754 115.742L149.465 114.175Z" fill="#83CD29"/>
<path d="M112.679 120.692C112.679 120.843 112.598 120.984 112.465 121.062L107.611 123.86C107.546 123.898 107.473 123.918 107.398 123.918C107.323 123.918 107.249 123.898 107.184 123.86L102.33 121.062C102.265 121.024 102.212 120.97 102.174 120.905C102.137 120.84 102.117 120.767 102.117 120.692V115.085C102.117 114.934 102.199 114.791 102.33 114.714L107.184 111.912C107.249 111.874 107.323 111.853 107.399 111.853C107.474 111.853 107.548 111.874 107.613 111.912L112.469 114.714C112.533 114.752 112.586 114.807 112.623 114.872C112.661 114.937 112.68 115.01 112.68 115.085L112.679 120.692ZM113.99 79.1769C113.86 79.1058 113.714 79.0696 113.566 79.0719C113.417 79.0742 113.272 79.1149 113.144 79.19C113.016 79.2651 112.91 79.3721 112.836 79.5005C112.762 79.6289 112.722 79.7743 112.721 79.9227V101.616C112.72 101.72 112.693 101.823 112.64 101.914C112.588 102.005 112.513 102.08 112.423 102.133C112.332 102.185 112.229 102.213 112.124 102.213C112.019 102.213 111.916 102.185 111.825 102.133L108.285 100.092C108.025 99.943 107.731 99.8645 107.432 99.8645C107.133 99.8645 106.839 99.943 106.58 100.092L92.44 108.252C92.1803 108.402 91.9645 108.618 91.8144 108.878C91.6644 109.137 91.5853 109.432 91.5851 109.732V126.057C91.5851 126.667 91.9109 127.229 92.4384 127.537L106.578 135.702C107.105 136.007 107.757 136.007 108.286 135.702L122.429 127.537C122.688 127.386 122.904 127.17 123.053 126.911C123.203 126.651 123.282 126.357 123.283 126.057V85.3632C123.283 84.745 122.947 84.1739 122.407 83.8716L113.99 79.1769Z" fill="#404137"/>
<path d="M64.2278 99.7851C64.4872 99.635 64.7815 99.5559 65.0811 99.5559C65.3808 99.5559 65.6751 99.635 65.9344 99.7851L80.074 107.943C80.6014 108.249 80.9273 108.813 80.9273 109.423V125.753C80.9273 126.363 80.6014 126.927 80.074 127.233L65.9361 135.398C65.6762 135.547 65.3817 135.626 65.082 135.626C64.7822 135.626 64.4877 135.547 64.2278 135.398L50.0933 127.233C49.834 127.082 49.6188 126.866 49.4691 126.607C49.3193 126.347 49.2403 126.053 49.24 125.753V109.421C49.24 108.813 49.5658 108.249 50.0933 107.943L64.2278 99.7851Z" fill="#83CD29"/>
<path d="M38.5153 109.287C38.5153 108.673 38.1928 108.108 37.662 107.804L23.5274 99.6694C23.29 99.5318 23.0223 99.4551 22.748 99.446H22.6019C22.3277 99.4553 22.06 99.532 21.8225 99.6694L7.68626 107.804C7.42621 107.955 7.21032 108.171 7.06025 108.431C6.91019 108.692 6.83123 108.987 6.8313 109.287L6.86153 131.191C6.86153 131.496 7.0211 131.78 7.28817 131.928C7.41605 132.005 7.56274 132.046 7.7123 132.046C7.86185 132.046 8.00854 132.005 8.13642 131.928L16.5349 127.117C17.0656 126.801 17.3898 126.246 17.3898 125.636V115.403C17.3898 114.792 17.7123 114.229 18.2414 113.923L21.8192 111.864C22.0778 111.712 22.3725 111.633 22.6724 111.634C22.9647 111.634 23.2637 111.708 23.524 111.864L27.0984 113.923C27.6275 114.229 27.9534 114.792 27.9534 115.403V125.636C27.9534 126.246 28.2809 126.805 28.8083 127.117L37.2068 131.928C37.3363 132.002 37.4829 132.041 37.6321 132.04C37.7813 132.04 37.9277 132.001 38.0569 131.926C38.186 131.851 38.2934 131.744 38.3682 131.615C38.443 131.486 38.4827 131.34 38.4834 131.191L38.5153 109.287Z" fill="#404137"/>
</svg>
