<svg width="185" height="185" viewBox="0 0 185 185" fill="none" xmlns="http://www.w3.org/2000/svg">
<path d="M91.6199 17.7021C85.5177 17.731 79.6931 18.2499 74.5652 19.1575C59.4616 21.8256 56.7213 27.4102 56.7213 37.711V51.3128H92.4104V55.8468H43.3262C32.9546 55.8468 23.8723 62.0804 21.0308 73.9435C17.7528 87.5367 17.6083 96.0207 21.0308 110.215C23.5673 120.782 29.6261 128.309 39.9991 128.309H52.2712V112.003C52.2712 100.222 62.4621 89.8318 74.5666 89.8318H110.215C120.139 89.8318 128.059 81.66 128.059 71.6961V37.7124C128.059 28.039 119.899 20.7734 110.215 19.159C104.081 18.1386 97.7205 17.6746 91.6199 17.7021ZM72.3191 28.6416C76.0047 28.6416 79.0167 31.7014 79.0167 35.465C79.0167 39.2127 76.0061 42.2435 72.3191 42.2435C68.6191 42.2435 65.623 39.2127 65.623 35.465C65.6216 31.7014 68.6191 28.6416 72.3191 28.6416Z" fill="url(#paint0_linear_95_32)"/>
<path d="M132.509 55.8469V71.6962C132.509 83.9814 122.091 94.3226 110.214 94.3226H74.565C64.8005 94.3226 56.7212 102.681 56.7212 112.46V146.446C56.7212 156.117 65.13 161.807 74.565 164.581C85.8616 167.901 96.6956 168.502 110.214 164.581C119.198 161.978 128.057 156.743 128.057 146.446V132.843H92.4103V128.308H145.904C156.276 128.308 160.143 121.074 163.751 110.214C167.477 99.0343 167.316 88.2826 163.751 73.9422C161.187 63.6155 156.292 55.8455 145.904 55.8455L132.509 55.8469ZM112.458 141.911C116.16 141.911 119.156 144.942 119.156 148.692C119.156 152.453 116.158 155.513 112.458 155.513C108.773 155.513 105.762 152.453 105.762 148.692C105.762 144.942 108.773 141.911 112.458 141.911Z" fill="url(#paint1_linear_95_32)"/>
<path opacity="0.444" d="M140.642 172.855C140.642 177.976 119.228 182.128 92.8151 182.128C66.4006 182.128 44.9868 177.976 44.9868 172.855C44.9868 167.733 66.3991 163.581 92.8151 163.581C119.228 163.581 140.642 167.732 140.642 172.855Z" fill="url(#paint2_radial_95_32)"/>
<defs>
<linearGradient id="paint0_linear_95_32" x1="14.9401" y1="21.9551" x2="97.2561" y2="92.1538" gradientUnits="userSpaceOnUse">
<stop stop-color="#5A9FD4"/>
<stop offset="1" stop-color="#306998"/>
</linearGradient>
<linearGradient id="paint1_linear_95_32" x1="128.226" y1="135.791" x2="98.7065" y2="94.3937" gradientUnits="userSpaceOnUse">
<stop stop-color="#FFD43B"/>
<stop offset="1" stop-color="#FFE873"/>
</linearGradient>
<radialGradient id="paint2_radial_95_32" cx="0" cy="0" r="1" gradientUnits="userSpaceOnUse" gradientTransform="translate(92.6218 172.59) rotate(-90) scale(9.27648 40.7779)">
<stop stop-color="#B8B8B8" stop-opacity="0.498"/>
<stop offset="1" stop-color="#7F7F7F" stop-opacity="0"/>
</radialGradient>
</defs>
</svg>
