<svg width="215" height="215" viewBox="0 0 215 215" fill="none" xmlns="http://www.w3.org/2000/svg">
<path d="M106.477 20.5729C99.3854 20.6065 92.6163 21.2095 86.6568 22.2643C69.104 25.365 65.9193 31.8553 65.9193 43.8265V59.634H107.396V64.9032H50.352C38.2986 64.9032 27.7434 72.1477 24.4411 85.9346C20.6316 101.732 20.4636 111.592 24.4411 128.088C27.389 140.368 34.4302 149.116 46.4854 149.116H60.7476V130.166C60.7476 116.475 72.5911 104.399 86.6584 104.399H128.088C139.621 104.399 148.825 94.9024 148.825 83.3226V43.8281C148.825 32.586 139.342 24.1422 128.088 22.266C120.959 21.0801 113.567 20.541 106.477 20.5729ZM84.0465 33.2864C88.3297 33.2864 91.8302 36.8423 91.8302 41.2162C91.8302 45.5717 88.3314 49.094 84.0465 49.094C79.7465 49.094 76.2645 45.5717 76.2645 41.2162C76.2629 36.8423 79.7465 33.2864 84.0465 33.2864Z" fill="url(#paint0_linear_8_100)"/>
<path d="M153.997 64.903V83.3225C153.997 97.5998 141.89 109.618 128.086 109.618H86.6568C75.3088 109.618 65.9193 119.332 65.9193 130.696V170.194C65.9193 181.433 75.6918 188.046 86.6568 191.269C99.7852 195.128 112.376 195.826 128.086 191.269C138.527 188.244 148.824 182.16 148.824 170.194V154.385H107.396V149.114H169.564C181.618 149.114 186.113 140.707 190.305 128.086C194.635 115.094 194.449 102.599 190.305 85.9327C187.325 73.9314 181.636 64.9014 169.564 64.9014L153.997 64.903ZM130.695 164.923C134.996 164.923 138.478 168.446 138.478 172.804C138.478 177.175 134.995 180.731 130.695 180.731C126.412 180.731 122.913 177.175 122.913 172.804C122.913 168.446 126.412 164.923 130.695 164.923Z" fill="url(#paint1_linear_8_100)"/>
<path opacity="0.444" d="M163.449 200.885C163.449 206.837 138.562 211.662 107.866 211.662C77.1682 211.662 52.282 206.837 52.282 200.885C52.282 194.933 77.1665 190.107 107.866 190.107C138.562 190.107 163.449 194.931 163.449 200.885Z" fill="url(#paint2_radial_8_100)"/>
<defs>
<linearGradient id="paint0_linear_8_100" x1="17.3627" y1="25.5156" x2="113.027" y2="107.098" gradientUnits="userSpaceOnUse">
<stop stop-color="#5A9FD4"/>
<stop offset="1" stop-color="#306998"/>
</linearGradient>
<linearGradient id="paint1_linear_8_100" x1="149.02" y1="157.811" x2="114.713" y2="109.701" gradientUnits="userSpaceOnUse">
<stop stop-color="#FFD43B"/>
<stop offset="1" stop-color="#FFE873"/>
</linearGradient>
<radialGradient id="paint2_radial_8_100" cx="0" cy="0" r="1" gradientUnits="userSpaceOnUse" gradientTransform="translate(107.642 200.577) rotate(-90) scale(10.7808 47.3905)">
<stop stop-color="#B8B8B8" stop-opacity="0.498"/>
<stop offset="1" stop-color="#7F7F7F" stop-opacity="0"/>
</radialGradient>
</defs>
</svg>
