<svg width="185" height="185" viewBox="0 0 185 185" fill="none" xmlns="http://www.w3.org/2000/svg">
<path d="M92.5 108.977C101.6 108.977 108.977 101.6 108.977 92.5C108.977 83.4002 101.6 76.0234 92.5 76.0234C83.4002 76.0234 76.0234 83.4002 76.0234 92.5C76.0234 101.6 83.4002 108.977 92.5 108.977Z" fill="#61DAFB"/>
<path d="M155.082 65.3282C151.902 64.172 148.578 63.0157 145.109 62.004C145.976 58.5353 146.699 55.0665 147.277 51.7423C150.312 32.6641 146.988 19.2227 137.738 14.0195C134.992 12.4297 131.957 11.707 128.488 11.707C118.371 11.707 105.508 19.2227 92.4998 31.7969C79.492 19.2227 66.6288 11.707 56.5116 11.707C53.0429 11.707 50.0077 12.4297 47.2616 14.0195C38.0116 19.3672 34.6874 32.8086 37.7226 51.7423C38.3007 55.0665 39.0234 58.5353 39.8905 62.004C36.4218 63.0157 33.0976 64.0275 29.9179 65.3282C11.8515 72.2658 2.02344 81.8049 2.02344 92.5002C2.02344 103.196 11.9961 112.735 29.9179 119.672C33.0976 120.828 36.4218 121.985 39.8905 122.996C39.0234 126.465 38.3007 129.934 37.7226 133.258C34.6874 152.336 38.0116 165.778 47.2616 170.981C50.0077 172.571 53.0429 173.293 56.5116 173.293C66.7733 173.293 79.6366 165.778 92.4998 153.203C105.508 165.778 118.371 173.293 128.488 173.293C131.957 173.293 134.992 172.571 137.738 170.981C146.988 165.633 150.312 152.192 147.277 133.258C146.699 129.934 145.976 126.465 145.109 122.996C148.578 121.985 151.902 120.973 155.082 119.672C173.148 112.735 182.976 103.196 182.976 92.5002C182.976 81.8049 173.148 72.2658 155.082 65.3282ZM133.691 21.2461C139.617 24.7149 141.64 35.4102 139.183 50.586C138.75 53.6212 138.027 56.8009 137.16 60.1251C129.644 58.3907 121.695 57.2345 113.312 56.5118C108.398 49.5743 103.34 43.3594 98.281 37.7227C108.976 27.1719 119.816 19.9453 128.633 19.9453C130.511 19.9453 132.246 20.3789 133.691 21.2461ZM117.504 106.953C114.902 111.578 111.867 116.203 108.687 120.828C103.34 121.262 97.992 121.407 92.4998 121.407C86.8631 121.407 81.5155 121.262 76.3123 120.828C73.1327 116.203 70.242 111.578 67.6405 106.953C64.8944 102.184 62.2928 97.2697 59.9803 92.5002C62.2928 87.7306 64.8944 82.8166 67.6405 78.047C70.242 73.422 73.2772 68.797 76.4569 64.172C81.8045 63.7384 87.1522 63.5939 92.6443 63.5939C98.281 63.5939 103.629 63.7384 108.832 64.172C112.011 68.797 114.902 73.422 117.504 78.047C120.25 82.8166 122.851 87.7306 125.164 92.5002C122.707 97.2697 120.25 102.039 117.504 106.953ZM129.5 102.184C131.668 107.242 133.402 112.156 134.992 117.071C130.078 118.227 124.875 119.094 119.383 119.817C121.117 117.071 122.996 114.18 124.586 111.145C126.32 108.11 127.91 105.074 129.5 102.184ZM92.4998 141.352C89.0311 137.594 85.7068 133.547 82.5272 129.356C85.8514 129.5 89.1756 129.645 92.4998 129.645C95.824 129.645 99.1482 129.5 102.472 129.356C99.2928 133.547 95.9685 137.594 92.4998 141.352ZM65.6171 119.672C60.1249 118.949 54.9218 118.082 50.0077 116.926C51.5975 112.156 53.3319 107.098 55.4999 102.039C57.0897 104.93 58.6796 107.965 60.4139 110.856C62.1483 114.035 63.8827 116.781 65.6171 119.672ZM55.4999 82.8166C53.3319 77.758 51.5975 72.8439 50.0077 67.9298C54.9218 66.7736 60.1249 65.9064 65.6171 65.1837C63.8827 67.9298 62.0038 70.8204 60.4139 73.8556C58.6796 76.8908 57.0897 79.9259 55.4999 82.8166ZM92.4998 43.6485C95.9685 47.4063 99.2928 51.4532 102.472 55.6446C99.1482 55.5001 95.824 55.3556 92.4998 55.3556C89.1756 55.3556 85.8514 55.5001 82.5272 55.6446C85.7068 51.4532 89.0311 47.4063 92.4998 43.6485ZM124.586 74.0001L119.383 65.3282C124.875 66.0509 130.078 66.9181 134.992 68.0743C133.402 72.8439 131.668 77.9025 129.5 82.9611C127.91 79.9259 126.32 76.8908 124.586 74.0001ZM45.8163 50.586C43.3593 35.4102 45.3827 24.7149 51.3085 21.2461C52.7538 20.3789 54.4882 19.9453 56.3671 19.9453C65.0389 19.9453 75.8787 27.0274 86.7186 37.7227C81.66 43.2149 76.6014 49.5743 71.6873 56.5118C63.3046 57.2345 55.3554 58.5353 47.8397 60.1251C46.9726 56.8009 46.3944 53.6212 45.8163 50.586ZM10.1172 92.5002C10.1172 85.7072 18.3554 78.4806 32.8085 73.133C35.6991 71.9767 38.8788 70.965 42.0585 70.0978C44.371 77.3244 47.2616 84.9845 50.7304 92.6447C47.2616 100.305 44.2265 107.821 42.0585 115.047C22.1132 109.266 10.1172 100.594 10.1172 92.5002ZM51.3085 163.754C45.3827 160.286 43.3593 149.59 45.8163 134.414C46.2499 131.379 46.9726 128.199 47.8397 124.875C55.3554 126.61 63.3046 127.766 71.6873 128.489C76.6014 135.426 81.66 141.641 86.7186 147.278C76.0233 157.828 65.1835 165.055 56.3671 165.055C54.4882 165.055 52.7538 164.621 51.3085 163.754ZM139.183 134.414C141.64 149.59 139.617 160.286 133.691 163.754C132.246 164.621 130.511 165.055 128.633 165.055C119.961 165.055 109.121 157.973 98.281 147.278C103.34 141.785 108.398 135.426 113.312 128.489C121.695 127.766 129.644 126.465 137.16 124.875C138.027 128.199 138.605 131.379 139.183 134.414ZM152.191 111.867C149.3 113.024 146.121 114.035 142.941 114.903C140.629 107.676 137.738 100.016 134.269 92.3557C137.738 84.6955 140.773 77.1798 142.941 69.9533C162.886 75.7345 174.882 84.4064 174.882 92.5002C174.882 99.2932 166.5 106.52 152.191 111.867Z" fill="#61DAFB"/>
</svg>
