<svg width="185" height="185" viewBox="0 0 185 185" fill="none" xmlns="http://www.w3.org/2000/svg">
<path d="M0 92.5V185H185V0H0V92.5ZM149.08 85.1C153.511 86.1283 157.539 88.4457 160.654 91.76C162.369 93.5455 163.86 95.5335 165.094 97.68C165.094 97.9168 157.102 103.319 152.233 106.338C152.055 106.456 151.345 105.687 150.56 104.518C149.672 102.984 148.409 101.7 146.889 100.787C145.37 99.8731 143.644 99.3593 141.873 99.2932C136.264 98.9084 132.652 101.854 132.682 106.693C132.636 107.898 132.912 109.094 133.481 110.156C134.71 112.717 137.004 114.241 144.196 117.349C157.442 123.047 163.111 126.806 166.633 132.149C170.57 138.069 171.443 147.63 168.779 154.704C165.819 162.4 158.567 167.625 148.311 169.356C143.626 169.893 138.893 169.843 134.221 169.208C127.091 168.052 120.513 164.657 115.44 159.514C113.738 157.635 110.423 152.736 110.63 152.381C111.17 151.98 111.739 151.619 112.332 151.3L119.14 147.393L124.453 144.315L125.563 145.958C127.436 148.637 129.82 150.921 132.578 152.677C138.498 155.785 146.579 155.356 150.575 151.759C151.917 150.441 152.754 148.695 152.94 146.823C153.127 144.952 152.651 143.074 151.596 141.518C150.116 139.46 147.156 137.729 138.883 134.118C129.337 130.003 125.223 127.458 121.464 123.402C119.117 120.726 117.384 117.569 116.387 114.152C115.644 110.249 115.534 106.251 116.062 102.312C118.03 93.092 124.942 86.654 135.035 84.7448C139.71 84.1664 144.445 84.2961 149.08 85.1296V85.1ZM105.657 92.8552V100.433H81.6368V168.853H64.602V100.418H40.5224V93.018C40.4578 90.4705 40.5269 87.9214 40.7296 85.3812C40.8184 85.2628 55.5296 85.2036 73.2896 85.2332H105.568L105.657 92.8552Z" fill="#007ACC"/>
</svg>
