<svg width="100" height="100" viewBox="0 0 100 100" fill="none" xmlns="http://www.w3.org/2000/svg">
<rect x="1" y="1" width="98" height="98" rx="49" fill="#101013"/>
<rect x="1" y="1" width="98" height="98" rx="49" stroke="#F279AA" stroke-width="2"/>
<path d="M11.1748 67.2695C10.9958 67.237 10.8656 67.1475 10.7842 67.001C10.7028 66.8545 10.6621 66.6917 10.6621 66.5127C10.6621 66.3662 10.6947 66.236 10.7598 66.1221L13.7627 60.3848C13.779 60.3197 13.8034 60.0674 13.8359 59.6279C13.8848 59.1885 13.9336 58.6432 13.9824 57.9922C14.0312 57.3249 14.0801 56.5843 14.1289 55.7705C14.194 54.9567 14.2591 54.151 14.3242 53.3535C14.3893 52.556 14.4463 51.7992 14.4951 51.083C14.5602 50.3506 14.6172 49.7402 14.666 49.252C14.6823 49.0566 14.7067 48.7637 14.7393 48.373C14.7718 47.9661 14.8044 47.5023 14.8369 46.9814C14.8695 46.4606 14.9102 45.8991 14.959 45.2969C15.0078 44.6947 15.0566 44.0924 15.1055 43.4902L15.4473 38.3877C15.0078 38.4854 14.5521 38.5911 14.0801 38.7051C13.6081 38.8027 13.1442 38.8923 12.6885 38.9736C12.249 39.055 11.8258 39.1283 11.4189 39.1934C11.0283 39.2422 10.6865 39.2666 10.3936 39.2666C10.2145 39.2666 10.0762 39.1852 9.97852 39.0225C9.89714 38.8597 9.85645 38.6888 9.85645 38.5098C9.85645 38.2982 9.90527 38.1436 10.0029 38.0459L16.2041 32.2598C16.7087 31.804 17.2051 31.4378 17.6934 31.1611C18.1979 30.8682 18.8001 30.6403 19.5 30.4775C20.1999 30.3148 21.0544 30.209 22.0635 30.1602C23.0889 30.0951 24.3828 30.0625 25.9453 30.0625C28.6146 30.0625 30.9827 30.3392 33.0498 30.8926C35.1169 31.446 36.8665 32.2354 38.2988 33.2607C39.3568 33.9932 40.3008 34.7581 41.1309 35.5557C41.9609 36.3532 42.6608 37.2402 43.2305 38.2168C43.8001 39.1771 44.2314 40.2432 44.5244 41.415C44.8174 42.5706 44.9639 43.8809 44.9639 45.3457C44.9639 48.1289 44.5488 50.6029 43.7188 52.7676C42.8887 54.9323 41.7575 56.8285 40.3252 58.4561C38.8929 60.0674 37.2165 61.4346 35.2959 62.5576C33.3916 63.6807 31.349 64.5921 29.168 65.292C27.0033 65.9919 24.7572 66.4964 22.4297 66.8057C20.1185 67.1149 17.848 67.2695 15.6182 67.2695H11.1748ZM25.3594 37.875L25.0664 40.8291C24.9688 41.8545 24.863 42.9531 24.749 44.125C24.6514 45.2806 24.5537 46.4606 24.4561 47.665C24.3584 48.8532 24.2607 50.0332 24.1631 51.2051C24.0654 52.3607 23.9759 53.443 23.8945 54.4521C23.8132 55.4613 23.7399 56.3646 23.6748 57.1621C23.6097 57.9596 23.5527 58.5944 23.5039 59.0664L23.4307 59.7988C25.4001 59.7988 27.0602 59.4814 28.4111 58.8467C29.7783 58.2119 30.8851 57.3411 31.7314 56.2344C32.5778 55.1113 33.1882 53.8011 33.5625 52.3037C33.9531 50.8063 34.1484 49.195 34.1484 47.4697C34.1484 46.2327 33.9775 45.0446 33.6357 43.9053C33.2939 42.7497 32.7975 41.651 32.1465 40.6094C31.4954 39.5677 30.6979 38.7865 29.7539 38.2656C28.8099 37.7448 27.7438 37.4844 26.5557 37.4844C26.3604 37.4844 26.1488 37.5332 25.9209 37.6309C25.693 37.7122 25.5059 37.7936 25.3594 37.875ZM45.623 66.9277C45.6556 66.1628 45.68 65.5605 45.6963 65.1211C45.7126 64.6654 45.7207 64.3154 45.7207 64.0713C45.737 63.8271 45.7451 63.6562 45.7451 63.5586C45.7451 63.4609 45.7451 63.3714 45.7451 63.29C45.7451 63.1924 45.7451 63.0785 45.7451 62.9482C45.7614 62.818 45.7777 62.6064 45.7939 62.3135C45.8102 62.0042 45.8346 61.5892 45.8672 61.0684C45.8997 60.5312 45.9404 59.8232 45.9893 58.9443C46.0218 58.4072 46.0706 58.041 46.1357 57.8457C46.2171 57.6341 46.4043 57.5039 46.6973 57.4551C48.1296 57.4551 49.627 57.4551 51.1895 57.4551C52.752 57.4388 54.2249 57.4225 55.6084 57.4062C55.7549 57.4062 55.877 57.4469 55.9746 57.5283C56.0723 57.6097 56.1211 57.7643 56.1211 57.9922L55.4375 65.6582C55.3724 66.1953 55.3073 66.5615 55.2422 66.7568C55.1934 66.9684 55.0143 67.0905 54.7051 67.123C53.3216 67.1393 51.8975 67.1556 50.4326 67.1719C48.984 67.1882 47.4704 67.1963 45.8916 67.1963C45.7939 67.1963 45.7207 67.1882 45.6719 67.1719C45.6393 67.1556 45.623 67.1068 45.623 67.0254V66.9277ZM71.8438 64.0469C71.8275 64.1934 71.7949 64.3398 71.7461 64.4863C71.7135 64.6165 71.6077 64.7223 71.4287 64.8037C71.3636 64.8363 71.0381 64.9583 70.4521 65.1699C69.8825 65.3652 69.2152 65.6012 68.4502 65.8779C67.7015 66.1383 66.9528 66.3988 66.2041 66.6592C65.4717 66.9359 64.9102 67.1475 64.5195 67.2939C64.3242 67.3753 64.0801 67.4567 63.7871 67.5381C63.5104 67.6357 63.2337 67.6846 62.957 67.6846C62.7292 67.6846 62.5257 67.6276 62.3467 67.5137C62.1839 67.3997 62.1025 67.1882 62.1025 66.8789C62.1025 66.1628 62.1188 65.5117 62.1514 64.9258C62.2002 64.3236 62.2572 63.6969 62.3223 63.0459C62.3874 62.3949 62.4525 61.6787 62.5176 60.8975C62.599 60.0999 62.6722 59.1559 62.7373 58.0654C62.8187 56.6331 62.9082 55.2578 63.0059 53.9395C63.1035 52.6048 63.2012 51.2214 63.2988 49.7891L63.6406 45.6143C63.6895 44.9307 63.7383 44.2389 63.7871 43.5391C63.8359 42.8229 63.8848 42.0905 63.9336 41.3418L64.2021 38.3633C64.2021 38.3307 64.1533 38.3145 64.0557 38.3145C63.9255 38.3145 63.7057 38.347 63.3965 38.4121C63.0872 38.4609 62.721 38.526 62.2979 38.6074C61.8747 38.6888 61.4027 38.7783 60.8818 38.876C60.3773 38.9574 59.8564 39.0387 59.3193 39.1201C59.1891 39.1201 59.0589 39.0957 58.9287 39.0469C58.8148 38.9818 58.7578 38.9085 58.7578 38.8271C58.7578 38.762 58.7741 38.7132 58.8066 38.6807L62.7617 31.7715C63.6569 31.5762 64.6172 31.3809 65.6426 31.1855C66.6842 30.974 67.7992 30.7868 68.9873 30.624C70.1755 30.4613 71.4368 30.3311 72.7715 30.2334C74.1061 30.1195 75.5221 30.0625 77.0195 30.0625C78.7122 30.0951 80.3561 30.266 81.9512 30.5752C83.5625 30.8682 84.9867 31.3727 86.2236 32.0889C87.4769 32.7887 88.4779 33.749 89.2266 34.9697C89.9915 36.1742 90.374 37.7041 90.374 39.5596C90.374 40.585 90.195 41.529 89.8369 42.3916C89.4951 43.2542 89.0475 44.0355 88.4941 44.7354C87.957 45.4189 87.363 46.0293 86.7119 46.5664C86.0609 47.0872 85.4342 47.5348 84.832 47.9092C84.2461 48.2835 83.7253 48.5846 83.2695 48.8125C82.8138 49.0241 82.5046 49.1624 82.3418 49.2275C82.3418 49.2601 82.3499 49.3008 82.3662 49.3496C82.3988 49.3984 82.4557 49.4961 82.5371 49.6426C82.6185 49.7728 82.7324 49.9681 82.8789 50.2285C83.0417 50.4727 83.2451 50.8145 83.4893 51.2539C83.7497 51.6445 84.0589 52.1654 84.417 52.8164C84.7751 53.4674 85.1982 54.2406 85.6865 55.1357C86.1911 56.0146 86.7689 56.9993 87.4199 58.0898C88.071 59.1803 88.8197 60.3522 89.666 61.6055C89.9427 61.8496 90.2601 62.0042 90.6182 62.0693C90.9762 62.1182 91.3099 62.1507 91.6191 62.167C91.9284 62.167 92.1888 62.1833 92.4004 62.2158C92.612 62.2321 92.7178 62.3298 92.7178 62.5088C92.7178 62.639 92.5794 62.7936 92.3027 62.9727C92.0423 63.1354 91.7331 63.3063 91.375 63.4854C91.0169 63.6644 90.6507 63.8353 90.2764 63.998C89.9183 64.1608 89.6416 64.291 89.4463 64.3887C89.0557 64.584 88.6488 64.7712 88.2256 64.9502C87.8024 65.1292 87.3467 65.3327 86.8584 65.5605C86.3701 65.7721 85.8249 66.0244 85.2227 66.3174C84.6367 66.6104 83.9694 66.9603 83.2207 67.3672C83.0254 67.4811 82.8382 67.5544 82.6592 67.5869C82.4964 67.6357 82.3418 67.6602 82.1953 67.6602C81.9023 67.6602 81.6501 67.5869 81.4385 67.4404C81.2269 67.3102 81.0479 67.1475 80.9014 66.9521C80.7549 66.7568 80.6328 66.5534 80.5352 66.3418C80.4538 66.1465 80.3805 65.9837 80.3154 65.8535L73.04 50.5215L71.8438 64.0469ZM73.333 47.5186C74.1631 47.5186 75.0257 47.307 75.9209 46.8838C76.8161 46.4606 77.6299 45.9154 78.3623 45.248C79.0947 44.5807 79.6969 43.8239 80.1689 42.9775C80.641 42.1312 80.877 41.2767 80.877 40.4141C80.877 38.054 79.4609 36.874 76.6289 36.874C76.0918 36.874 75.6442 36.9147 75.2861 36.9961C74.9281 37.0612 74.6025 37.11 74.3096 37.1426L73.333 47.5186Z" fill="#F279AA"/>
</svg>
