<svg width="215" height="215" viewBox="0 0 215 215" fill="none" xmlns="http://www.w3.org/2000/svg">
<path d="M107.5 126.648C118.075 126.648 126.648 118.075 126.648 107.5C126.648 96.9246 118.075 88.3516 107.5 88.3516C96.9247 88.3516 88.3517 96.9246 88.3517 107.5C88.3517 118.075 96.9247 126.648 107.5 126.648Z" fill="#61DAFB"/>
<path d="M180.23 75.922C176.535 74.5783 172.672 73.2345 168.64 72.0587C169.648 68.0275 170.488 63.9962 171.16 60.1329C174.687 37.961 170.824 22.3399 160.074 16.293C156.882 14.4453 153.355 13.6055 149.324 13.6055C137.566 13.6055 122.617 22.3399 107.5 36.9532C92.3826 22.3399 77.4334 13.6055 65.6756 13.6055C61.6444 13.6055 58.1171 14.4453 54.9257 16.293C44.1757 22.5078 40.3124 38.129 43.8398 60.1329C44.5116 63.9962 45.3515 68.0275 46.3593 72.0587C42.328 73.2345 38.4648 74.4103 34.7695 75.922C13.7734 83.9845 2.35156 95.0705 2.35156 107.5C2.35156 119.93 13.9414 131.016 34.7695 139.078C38.4648 140.422 42.328 141.766 46.3593 142.942C45.3515 146.973 44.5116 151.004 43.8398 154.868C40.3124 177.039 44.1757 192.661 54.9257 198.707C58.1171 200.555 61.6444 201.395 65.6756 201.395C77.6014 201.395 92.5506 192.661 107.5 178.047C122.617 192.661 137.566 201.395 149.324 201.395C153.355 201.395 156.882 200.555 160.074 198.707C170.824 192.493 174.687 176.871 171.16 154.868C170.488 151.004 169.648 146.973 168.64 142.942C172.672 141.766 176.535 140.59 180.23 139.078C201.226 131.016 212.648 119.93 212.648 107.5C212.648 95.0705 201.226 83.9845 180.23 75.922ZM155.371 24.6914C162.257 28.7227 164.609 41.1524 161.754 58.7892C161.25 62.3165 160.41 66.0118 159.402 69.8751C150.668 67.8595 141.429 66.5157 131.687 65.6759C125.976 57.6134 120.097 50.3907 114.219 43.8399C126.648 31.5782 139.246 23.1797 149.492 23.1797C151.675 23.1797 153.691 23.6836 155.371 24.6914ZM136.558 124.297C133.535 129.672 130.008 135.047 126.312 140.422C120.097 140.926 113.883 141.094 107.5 141.094C100.949 141.094 94.7342 140.926 88.6873 140.422C84.992 135.047 81.6326 129.672 78.6092 124.297C75.4178 118.754 72.3944 113.043 69.7069 107.5C72.3944 101.957 75.4178 96.2463 78.6092 90.7033C81.6326 85.3283 85.16 79.9533 88.8553 74.5783C95.0701 74.0744 101.285 73.9064 107.668 73.9064C114.219 73.9064 120.433 74.0744 126.48 74.5783C130.176 79.9533 133.535 85.3283 136.558 90.7033C139.75 96.2463 142.773 101.957 145.461 107.5C142.605 113.043 139.75 118.586 136.558 124.297ZM150.5 118.754C153.019 124.633 155.035 130.344 156.882 136.055C151.172 137.399 145.125 138.407 138.742 139.246C140.758 136.055 142.941 132.696 144.789 129.168C146.804 125.641 148.652 122.114 150.5 118.754ZM107.5 164.274C103.469 159.907 99.6053 155.203 95.91 150.332C99.7732 150.5 103.636 150.668 107.5 150.668C111.363 150.668 115.226 150.5 119.09 150.332C115.394 155.203 111.531 159.907 107.5 164.274ZM76.2577 139.078C69.8749 138.239 63.828 137.231 58.1171 135.887C59.9647 130.344 61.9803 124.465 64.4999 118.586C66.3475 121.946 68.1952 125.473 70.2108 128.832C72.2264 132.528 74.242 135.719 76.2577 139.078ZM64.4999 96.2463C61.9803 90.3674 59.9647 84.6564 58.1171 78.9455C63.828 77.6017 69.8749 76.5939 76.2577 75.7541C74.242 78.9455 72.0584 82.3048 70.2108 85.8322C68.1952 89.3596 66.3475 92.8869 64.4999 96.2463ZM107.5 50.7267C111.531 55.0938 115.394 59.797 119.09 64.6681C115.226 64.5001 111.363 64.3321 107.5 64.3321C103.636 64.3321 99.7732 64.5001 95.91 64.6681C99.6053 59.797 103.469 55.0938 107.5 50.7267ZM144.789 86.0002L138.742 75.922C145.125 76.7619 151.172 77.7697 156.882 79.1134C155.035 84.6564 153.019 90.5353 150.5 96.4143C148.652 92.8869 146.804 89.3596 144.789 86.0002ZM53.246 58.7892C50.3905 41.1524 52.7421 28.7227 59.6288 24.6914C61.3085 23.6836 63.3241 23.1797 65.5077 23.1797C75.5858 23.1797 88.1834 31.4102 100.781 43.8399C94.9021 50.2227 89.0232 57.6134 83.3123 65.6759C73.5702 66.5157 64.3319 68.0275 55.5975 69.8751C54.5897 66.0118 53.9179 62.3165 53.246 58.7892ZM11.7578 107.5C11.7578 99.6057 21.332 91.2072 38.1288 84.9924C41.4882 83.6486 45.1835 82.4728 48.8788 81.465C51.5663 89.8635 54.9257 98.7658 58.9569 107.668C54.9257 116.571 51.3983 125.305 48.8788 133.703C25.6992 126.985 11.7578 116.906 11.7578 107.5ZM59.6288 190.309C52.7421 186.278 50.3905 173.848 53.246 156.211C53.7499 152.684 54.5897 148.989 55.5975 145.125C64.3319 147.141 73.5702 148.485 83.3123 149.325C89.0232 157.387 94.9021 164.61 100.781 171.161C88.3514 183.422 75.7537 191.821 65.5077 191.821C63.3241 191.821 61.3085 191.317 59.6288 190.309ZM161.754 156.211C164.609 173.848 162.257 186.278 155.371 190.309C153.691 191.317 151.675 191.821 149.492 191.821C139.414 191.821 126.816 183.59 114.219 171.161C120.097 164.778 125.976 157.387 131.687 149.325C141.429 148.485 150.668 146.973 159.402 145.125C160.41 148.989 161.082 152.684 161.754 156.211ZM176.871 130.008C173.511 131.352 169.816 132.528 166.121 133.535C163.433 125.137 160.074 116.235 156.043 107.332C160.074 98.4299 163.601 89.6955 166.121 81.297C189.3 88.0158 203.242 98.0939 203.242 107.5C203.242 115.395 193.5 123.793 176.871 130.008Z" fill="#61DAFB"/>
</svg>
