<svg width="211" height="211" viewBox="0 0 211 211" fill="none" xmlns="http://www.w3.org/2000/svg">
<path d="M0.359375 105.349V210.329H210.32V0.368408H0.359375V105.349ZM169.554 96.9504C174.583 98.1174 179.154 100.748 182.689 104.509C184.636 106.535 186.328 108.792 187.729 111.228C187.729 111.497 178.658 117.627 173.132 121.054C172.93 121.188 172.124 120.315 171.234 118.988C170.225 117.247 168.792 115.79 167.068 114.754C165.343 113.717 163.385 113.134 161.374 113.059C155.008 112.622 150.91 115.964 150.943 121.457C150.891 122.825 151.204 124.181 151.85 125.388C153.245 128.293 155.848 130.023 164.011 133.551C179.045 140.018 185.478 144.284 189.475 150.348C193.943 157.066 194.934 167.917 191.911 175.946C188.552 184.681 180.321 190.61 168.681 192.575C163.364 193.184 157.993 193.128 152.69 192.407C144.598 191.094 137.133 187.241 131.375 181.405C129.443 179.272 125.681 173.712 125.916 173.309C126.529 172.854 127.175 172.444 127.848 172.083L135.574 167.648L141.604 164.155L142.864 166.019C144.99 169.06 147.696 171.652 150.826 173.645C157.545 177.172 166.716 176.685 171.251 172.604C172.773 171.108 173.723 169.126 173.935 167.002C174.147 164.878 173.607 162.747 172.41 160.98C170.73 158.645 167.371 156.68 157.981 152.582C147.147 147.912 142.478 145.023 138.211 140.421C135.548 137.384 133.581 133.801 132.45 129.923C131.606 125.492 131.481 120.955 132.08 116.485C134.314 106.021 142.159 98.7141 153.614 96.5473C158.919 95.8909 164.293 96.0381 169.554 96.984V96.9504ZM120.272 105.752V114.352H93.0109V192.004H73.6777V114.335H46.3492V105.937C46.2759 103.046 46.3544 100.153 46.5844 97.2696C46.6852 97.1352 63.3813 97.068 83.5375 97.1016H120.171L120.272 105.752Z" fill="#007ACC"/>
</svg>
